<?xml version="1.0" encoding="UTF-8" standalone="no"?>
<!DOCTYPE svg PUBLIC "-//W3C//DTD SVG 1.1//EN"
 "http://www.w3.org/Graphics/SVG/1.1/DTD/svg11.dtd">
<!-- Generated by graphviz version 15.0.0 (20260523.1842)
 -->
<!-- Title: arch Pages: 1 -->
<svg width="516pt" height="603pt"
 viewBox="0.00 0.00 516.00 603.00" xmlns="http://www.w3.org/2000/svg" xmlns:xlink="http://www.w3.org/1999/xlink">
<g id="graph0" class="graph" transform="scale(1 1) rotate(0) translate(4 599.2)">
<title>arch</title>
<polygon fill="white" stroke="none" points="-4,4 -4,-599.2 511.75,-599.2 511.75,4 -4,4"/>
<text xml:space="preserve" text-anchor="middle" x="253.88" y="-576.8" font-family="Helvetica,Arial,sans-serif" font-size="16.00">Architecture impact — shopstream (main → feature/analytics&#45;refunds)</text>
<!-- analytics -->
<g id="node1" class="node">
<title>analytics</title>
<path fill="#fef9c3" stroke="#16a34a" stroke-width="2.5" d="M137.27,-367C137.27,-367 72.73,-367 72.73,-367 66.73,-367 60.73,-361 60.73,-355 60.73,-355 60.73,-343 60.73,-343 60.73,-337 66.73,-331 72.73,-331 72.73,-331 137.27,-331 137.27,-331 143.27,-331 149.27,-337 149.27,-343 149.27,-343 149.27,-355 149.27,-355 149.27,-361 143.27,-367 137.27,-367"/>
<text xml:space="preserve" text-anchor="start" x="76.57" y="-346.1" font-family="Helvetica,Arial,sans-serif" font-size="13.00" fill="#1e293b">analytics </text>
<text xml:space="preserve" text-anchor="start" x="126.02" y="-346.1" font-family="Helvetica,Arial,sans-serif" font-weight="bold" font-size="13.00" fill="#16a34a">+</text>
</g>
<!-- api -->
<g id="node2" class="node">
<title>api</title>
<path fill="#f8fafc" stroke="#94a3b8" stroke-width="1.2" d="M257,-261C257,-261 227,-261 227,-261 221,-261 215,-255 215,-249 215,-249 215,-237 215,-237 215,-231 221,-225 227,-225 227,-225 257,-225 257,-225 263,-225 269,-231 269,-237 269,-237 269,-249 269,-249 269,-255 263,-261 257,-261"/>
<text xml:space="preserve" text-anchor="middle" x="242" y="-239.1" font-family="Helvetica,Arial,sans-serif" font-size="13.00" fill="#1e293b">api</text>
</g>
<!-- catalog -->
<g id="node3" class="node">
<title>catalog</title>
<path fill="#f8fafc" stroke="#94a3b8" stroke-width="1.2" d="M225.61,-36C225.61,-36 180.39,-36 180.39,-36 174.39,-36 168.39,-30 168.39,-24 168.39,-24 168.39,-12 168.39,-12 168.39,-6 174.39,0 180.39,0 180.39,0 225.61,0 225.61,0 231.61,0 237.61,-6 237.61,-12 237.61,-12 237.61,-24 237.61,-24 237.61,-30 231.61,-36 225.61,-36"/>
<text xml:space="preserve" text-anchor="middle" x="203" y="-14.1" font-family="Helvetica,Arial,sans-serif" font-size="13.00" fill="#1e293b">catalog</text>
</g>
<!-- api&#45;&gt;catalog -->
<g id="edge1" class="edge">
<title>api&#45;&gt;catalog</title>
<path fill="none" stroke="#64748b" d="M232.26,-224.61C220.94,-203.32 202.92,-165.78 196,-131 190.24,-102.08 193.74,-68.2 197.56,-45.34"/>
<polygon fill="#64748b" stroke="#64748b" points="200.27,-46.12 198.93,-37.75 194.76,-45.13 200.27,-46.12"/>
</g>
<!-- orders -->
<g id="node6" class="node">
<title>orders</title>
<path fill="#fef9c3" stroke="#94a3b8" stroke-width="1.2" d="M249.08,-473C249.08,-473 208.92,-473 208.92,-473 202.92,-473 196.92,-467 196.92,-461 196.92,-461 196.92,-449 196.92,-449 196.92,-443 202.92,-437 208.92,-437 208.92,-437 249.08,-437 249.08,-437 255.08,-437 261.08,-443 261.08,-449 261.08,-449 261.08,-461 261.08,-461 261.08,-467 255.08,-473 249.08,-473"/>
<text xml:space="preserve" text-anchor="middle" x="229" y="-451.1" font-family="Helvetica,Arial,sans-serif" font-size="13.00" fill="#1e293b">orders</text>
</g>
<!-- api&#45;&gt;orders -->
<g id="edge2" class="edge">
<title>api&#45;&gt;orders</title>
<path fill="none" stroke="#f59e0b" stroke-width="2" d="M240.93,-261.35C238.72,-297.01 233.65,-378.96 230.88,-423.63"/>
<polygon fill="#f59e0b" stroke="#f59e0b" stroke-width="2" points="227.4,-423.24 230.27,-433.44 234.38,-423.67 227.4,-423.24"/>
<text xml:space="preserve" text-anchor="middle" x="247.13" y="-346" font-family="Helvetica,Arial,sans-serif" font-size="10.00" fill="#b45309">cycle</text>
</g>
<!-- reviews -->
<g id="node8" class="node">
<title>reviews</title>
<path fill="#f8fafc" stroke="#94a3b8" stroke-width="1.2" d="M276.05,-131C276.05,-131 227.95,-131 227.95,-131 221.95,-131 215.95,-125 215.95,-119 215.95,-119 215.95,-107 215.95,-107 215.95,-101 221.95,-95 227.95,-95 227.95,-95 276.05,-95 276.05,-95 282.05,-95 288.05,-101 288.05,-107 288.05,-107 288.05,-119 288.05,-119 288.05,-125 282.05,-131 276.05,-131"/>
<text xml:space="preserve" text-anchor="middle" x="252" y="-109.1" font-family="Helvetica,Arial,sans-serif" font-size="13.00" fill="#1e293b">reviews</text>
</g>
<!-- api&#45;&gt;reviews -->
<g id="edge3" class="edge">
<title>api&#45;&gt;reviews</title>
<path fill="none" stroke="#64748b" d="M243.37,-224.47C245.06,-202.83 247.95,-165.81 249.92,-140.65"/>
<polygon fill="#64748b" stroke="#64748b" points="252.7,-141.02 250.53,-132.83 247.11,-140.58 252.7,-141.02"/>
</g>
<!-- legacy -->
<g id="node4" class="node">
<title>legacy</title>
<path fill="#f9fafb" stroke="#9ca3af" stroke-dasharray="5,2" d="M249.8,-568C249.8,-568 208.2,-568 208.2,-568 202.2,-568 196.2,-562 196.2,-556 196.2,-556 196.2,-544 196.2,-544 196.2,-538 202.2,-532 208.2,-532 208.2,-532 249.8,-532 249.8,-532 255.8,-532 261.8,-538 261.8,-544 261.8,-544 261.8,-556 261.8,-556 261.8,-562 255.8,-568 249.8,-568"/>
<text xml:space="preserve" text-anchor="start" x="212.04" y="-547.1" font-family="Helvetica,Arial,sans-serif" text-decoration="line-through" font-size="13.00" fill="#9ca3af">legacy</text>
</g>
<!-- legacy&#45;&gt;orders -->
<g id="edge4" class="edge">
<title>legacy&#45;&gt;orders</title>
<path fill="none" stroke="#9ca3af" stroke-dasharray="5,2" d="M229,-531.51C229,-518.39 229,-500.14 229,-484.87"/>
<polygon fill="#9ca3af" stroke="#9ca3af" points="232.5,-484.93 229,-474.93 225.5,-484.93 232.5,-484.93"/>
</g>
<!-- notifications -->
<g id="node5" class="node">
<title>notifications</title>
<path fill="#fef9c3" stroke="#94a3b8" stroke-width="1.2" d="M374.33,-367C374.33,-367 301.67,-367 301.67,-367 295.67,-367 289.67,-361 289.67,-355 289.67,-355 289.67,-343 289.67,-343 289.67,-337 295.67,-331 301.67,-331 301.67,-331 374.33,-331 374.33,-331 380.33,-331 386.33,-337 386.33,-343 386.33,-343 386.33,-355 386.33,-355 386.33,-361 380.33,-367 374.33,-367"/>
<text xml:space="preserve" text-anchor="middle" x="338" y="-345.1" font-family="Helvetica,Arial,sans-serif" font-size="13.00" fill="#1e293b">notifications</text>
</g>
<!-- notifications&#45;&gt;api -->
<g id="edge5" class="edge">
<title>notifications&#45;&gt;api</title>
<path fill="none" stroke="#dc2626" stroke-width="2.2" stroke-dasharray="1,5" d="M322.15,-330.83C307.16,-314.59 284.43,-289.97 267.01,-271.09"/>
<polygon fill="#dc2626" stroke="#dc2626" stroke-width="2.2" points="269.81,-268.97 260.46,-263.99 264.67,-273.72 269.81,-268.97"/>
<text xml:space="preserve" text-anchor="middle" x="312.32" y="-293" font-family="Helvetica,Arial,sans-serif" font-size="10.00" fill="#dc2626">forbidden</text>
</g>
<!-- orders&#45;&gt;analytics -->
<g id="edge6" class="edge">
<title>orders&#45;&gt;analytics</title>
<path fill="none" stroke="#16a34a" stroke-width="2" d="M208.25,-436.59C188.63,-420.15 158.95,-395.25 136.43,-376.36"/>
<polygon fill="#16a34a" stroke="#16a34a" stroke-width="2" points="138.89,-373.85 128.98,-370.11 134.39,-379.22 138.89,-373.85"/>
</g>
<!-- orders&#45;&gt;catalog -->
<g id="edge7" class="edge">
<title>orders&#45;&gt;catalog</title>
<path fill="none" stroke="#64748b" d="M196.68,-453.62C133.55,-451 0,-435.36 0,-350 0,-350 0,-350 0,-112 0,-42.64 99.17,-24.8 158.88,-20.35"/>
<polygon fill="#64748b" stroke="#64748b" points="158.79,-23.16 166.59,-19.85 158.43,-17.58 158.79,-23.16"/>
</g>
<!-- orders&#45;&gt;notifications -->
<g id="edge8" class="edge">
<title>orders&#45;&gt;notifications</title>
<path fill="none" stroke="#f59e0b" stroke-width="2" d="M247,-436.83C264.25,-420.37 290.53,-395.29 310.43,-376.31"/>
<polygon fill="#f59e0b" stroke="#f59e0b" stroke-width="2" points="312.6,-379.07 317.42,-369.64 307.77,-374.01 312.6,-379.07"/>
<text xml:space="preserve" text-anchor="middle" x="297.32" y="-399" font-family="Helvetica,Arial,sans-serif" font-size="10.00" fill="#b45309">cycle</text>
</g>
<!-- payments -->
<g id="node7" class="node">
<title>payments</title>
<path fill="#fef9c3" stroke="#94a3b8" stroke-width="1.2" d="M495.75,-367C495.75,-367 438.25,-367 438.25,-367 432.25,-367 426.25,-361 426.25,-355 426.25,-355 426.25,-343 426.25,-343 426.25,-337 432.25,-331 438.25,-331 438.25,-331 495.75,-331 495.75,-331 501.75,-331 507.75,-337 507.75,-343 507.75,-343 507.75,-355 507.75,-355 507.75,-361 501.75,-367 495.75,-367"/>
<text xml:space="preserve" text-anchor="middle" x="467" y="-345.1" font-family="Helvetica,Arial,sans-serif" font-size="13.00" fill="#1e293b">payments</text>
</g>
<!-- orders&#45;&gt;payments -->
<g id="edge9" class="edge">
<title>orders&#45;&gt;payments</title>
<path fill="none" stroke="#64748b" d="M261.59,-439.76C302.1,-422.06 371.6,-391.69 418.4,-371.24"/>
<polygon fill="#64748b" stroke="#64748b" points="419.27,-373.91 425.48,-368.14 417.03,-368.78 419.27,-373.91"/>
</g>
<!-- ui -->
<g id="node9" class="node">
<title>ui</title>
<path fill="#f8fafc" stroke="#94a3b8" stroke-width="1.2" d="M419,-196C419,-196 389,-196 389,-196 383,-196 377,-190 377,-184 377,-184 377,-172 377,-172 377,-166 383,-160 389,-160 389,-160 419,-160 419,-160 425,-160 431,-166 431,-172 431,-172 431,-184 431,-184 431,-190 425,-196 419,-196"/>
<text xml:space="preserve" text-anchor="middle" x="404" y="-174.1" font-family="Helvetica,Arial,sans-serif" font-size="13.00" fill="#1e293b">ui</text>
</g>
<!-- payments&#45;&gt;ui -->
<g id="edge10" class="edge">
<title>payments&#45;&gt;ui</title>
<path fill="none" stroke="#dc2626" stroke-width="2.2" stroke-dasharray="1,5" d="M460.5,-330.55C449.73,-301.69 428.11,-243.69 414.96,-208.4"/>
<polygon fill="#dc2626" stroke="#dc2626" stroke-width="2.2" points="418.31,-207.37 411.54,-199.22 411.75,-209.82 418.31,-207.37"/>
<text xml:space="preserve" text-anchor="middle" x="468.07" y="-293" font-family="Helvetica,Arial,sans-serif" font-size="10.00" fill="#dc2626">forbidden</text>
</g>
<!-- reviews&#45;&gt;catalog -->
<g id="edge11" class="edge">
<title>reviews&#45;&gt;catalog</title>
<path fill="none" stroke="#64748b" d="M242.78,-94.51C235.39,-80.48 224.91,-60.58 216.56,-44.74"/>
<polygon fill="#64748b" stroke="#64748b" points="219.09,-43.53 212.88,-37.75 214.13,-46.14 219.09,-43.53"/>
</g>
<!-- ui&#45;&gt;catalog -->
<g id="edge12" class="edge">
<title>ui&#45;&gt;catalog</title>
<path fill="none" stroke="#64748b" d="M384.53,-159.57C365.41,-142.63 335.22,-116.42 308,-95 284.48,-76.49 257.05,-56.7 236.13,-41.95"/>
<polygon fill="#64748b" stroke="#64748b" points="237.85,-39.74 229.69,-37.43 234.63,-44.32 237.85,-39.74"/>
</g>
</g>
</svg>
