<svg xmlns="http://www.w3.org/2000/svg" viewBox="0 0 1365.6272727272726 1226" width="1365.6272727272726" height="1226" font-family="Segoe UI, system-ui, sans-serif">
<rect width="1365.6272727272726" height="1226" fill="#ffffff"/>
<defs>
<marker id="arr94a3b8" viewBox="0 0 10 10" refX="9" refY="5" markerWidth="7" markerHeight="7" orient="auto-start-reverse"><path d="M 0 1 L 9 5 L 0 9 z" fill="#94a3b8"/></marker>
<marker id="arrdc2626" viewBox="0 0 10 10" refX="9" refY="5" markerWidth="7" markerHeight="7" orient="auto-start-reverse"><path d="M 0 1 L 9 5 L 0 9 z" fill="#dc2626"/></marker>
</defs>
<text x="682.8136363636363" y="28" text-anchor="middle" font-size="17" font-weight="700" fill="#1e293b">Architecture impact — shopstream (main → c7598ab36481c89e09e2cd4c25e6c3ef696a8015)</text>
<g transform="translate(24,52)">
<path d="M 41.45454545454545 68 L 41.45454545454545 164 Q 41.45454545454545 172 49.45454545454545 172 L 97.72727272727272 172 Q 105.72727272727272 172 105.72727272727272 180 L 105.72727272727272 652" fill="none" stroke="#94a3b8" stroke-width="2.4" marker-end="url(#arr94a3b8)" opacity="1"/>
<path d="M 76.36363636363636 68 L 76.36363636363636 124 Q 76.36363636363636 132 84.36363636363636 132 L 612.7272727272727 132 Q 620.7272727272727 132 620.7272727272727 140 L 620.7272727272727 598 Q 620.7272727272727 606 628.7272727272727 606 L 730.7272727272727 606 Q 738.7272727272727 606 738.7272727272727 614 L 738.7272727272727 652" fill="none" stroke="#94a3b8" stroke-width="2.4" marker-end="url(#arr94a3b8)" opacity="1"/>
<path d="M 85.0909090909091 68 L 85.0909090909091 114 Q 85.0909090909091 122 93.0909090909091 122 L 673.7272727272727 122 Q 681.7272727272727 122 681.7272727272727 130 L 681.7272727272727 834 Q 681.7272727272727 842 689.7272727272727 842 L 798.1272727272727 842 Q 806.1272727272727 842 806.1272727272727 850 L 806.1272727272727 896" fill="none" stroke="#94a3b8" stroke-width="3.3" marker-end="url(#arr94a3b8)" opacity="1"/>
<path d="M 111.27272727272725 68 L 111.27272727272725 84 Q 111.27272727272725 92 119.27272727272725 92 L 1208.7522727272726 92 Q 1216.7522727272726 92 1216.7522727272726 100 L 1216.7522727272726 196" fill="none" stroke="#94a3b8" stroke-width="2.4" marker-end="url(#arr94a3b8)" opacity="1"/>
<path d="M 93.81818181818181 68 L 93.81818181818181 104 Q 93.81818181818181 112 101.81818181818181 112 L 791.5272727272727 112 Q 799.5272727272727 112 799.5272727272727 120 L 799.5272727272727 538" fill="none" stroke="#94a3b8" stroke-width="3.3" marker-end="url(#arr94a3b8)" opacity="1"/>
<path d="M 67.63636363636363 68 L 67.63636363636363 134 Q 67.63636363636363 142 75.63636363636363 142 L 345.32727272727277 142 Q 353.32727272727277 142 353.32727272727277 150 L 353.32727272727277 310" fill="none" stroke="#94a3b8" stroke-width="3.3" marker-end="url(#arr94a3b8)" opacity="1"/>
<path d="M 58.90909090909091 68 L 58.90909090909091 144 Q 58.90909090909091 152 66.9090909090909 152 L 242.72727272727272 152 Q 250.72727272727272 152 250.72727272727272 160 L 250.72727272727272 652" fill="none" stroke="#94a3b8" stroke-width="2.4" marker-end="url(#arr94a3b8)" opacity="1"/>
<path d="M 102.54545454545453 68 L 102.54545454545453 94 Q 102.54545454545453 102 110.54545454545453 102 L 1064.1272727272726 102 Q 1072.1272727272726 102 1072.1272727272726 110 L 1072.1272727272726 538" fill="none" stroke="#94a3b8" stroke-width="2.4" marker-end="url(#arr94a3b8)" opacity="1"/>
<path d="M 32.72727272727273 68 L 32.72727272727273 1016 Q 32.72727272727273 1024 40.72727272727273 1024 L 695.1272727272727 1024 Q 703.1272727272727 1024 703.1272727272727 1032 L 703.1272727272727 1048" fill="none" stroke="#94a3b8" stroke-width="1.5" marker-end="url(#arr94a3b8)" opacity="1"/>
<path d="M 50.18181818181818 68 L 50.18181818181818 154 Q 50.18181818181818 162 58.18181818181818 162 L 169.72727272727272 162 Q 177.72727272727272 162 177.72727272727272 170 L 177.72727272727272 722 Q 177.72727272727272 730 185.72727272727272 730 L 435.72727272727275 730 Q 443.72727272727275 730 443.72727272727275 738 L 443.72727272727275 774" fill="none" stroke="#94a3b8" stroke-width="3.3" marker-end="url(#arr94a3b8)" opacity="1"/>
<path d="M 89.72727272727272 696 L 89.72727272727272 1006 Q 89.72727272727272 1014 97.72727272727272 1014 L 701.1272727272727 1014 Q 709.1272727272727 1014 709.1272727272727 1022 L 709.1272727272727 1048" fill="none" stroke="#94a3b8" stroke-width="2.4" marker-end="url(#arr94a3b8)" opacity="1"/>
<path d="M 121.72727272727272 696 L 121.72727272727272 732 Q 121.72727272727272 740 129.72727272727272 740 L 423.72727272727275 740 Q 431.72727272727275 740 431.72727272727275 748 L 431.72727272727275 774" fill="none" stroke="#94a3b8" stroke-width="1.5" marker-end="url(#arr94a3b8)" opacity="1"/>
<path d="M 411.72727272727275 468 L 411.72727272727275 484 Q 411.72727272727275 492 419.72727272727275 492 L 767.5272727272727 492 Q 775.5272727272727 492 775.5272727272727 500 L 775.5272727272727 538" fill="none" stroke="#94a3b8" stroke-width="1.5" marker-end="url(#arr94a3b8)" opacity="1"/>
<path d="M 379.72727272727275 468 L 379.72727272727275 976 Q 379.72727272727275 984 387.72727272727275 984 L 719.1272727272727 984 Q 727.1272727272727 984 727.1272727272727 992 L 727.1272727272727 1048" fill="none" stroke="#94a3b8" stroke-width="2.4" marker-end="url(#arr94a3b8)" opacity="1"/>
<path d="M 764.3272727272728 696 L 764.3272727272728 742 Q 764.3272727272728 750 772.3272727272728 750 L 810.1272727272727 750 Q 818.1272727272727 750 818.1272727272727 758 L 818.1272727272727 896" fill="none" stroke="#94a3b8" stroke-width="1.5" marker-end="url(#arr94a3b8)" opacity="1"/>
<path d="M 783.5272727272727 696 L 783.5272727272727 712 Q 783.5272727272727 720 791.5272727272727 720 L 867.1272727272727 720 Q 875.1272727272727 720 875.1272727272727 728 L 875.1272727272727 774" fill="none" stroke="#94a3b8" stroke-width="1.5" marker-end="url(#arr94a3b8)" opacity="1"/>
<path d="M 745.1272727272727 696 L 745.1272727272727 1048" fill="none" stroke="#94a3b8" stroke-width="2.4" marker-end="url(#arr94a3b8)" opacity="1"/>
<path d="M 725.9272727272728 696 L 725.9272727272728 712 Q 725.9272727272728 720 717.9272727272728 720 L 487.72727272727275 720 Q 479.72727272727275 720 479.72727272727275 728 L 479.72727272727275 774" fill="none" stroke="#94a3b8" stroke-width="1.5" marker-end="url(#arr94a3b8)" opacity="1"/>
<path d="M 818.1272727272727 940 L 818.1272727272727 956 Q 818.1272727272727 964 810.1272727272727 964 L 759.1272727272727 964 Q 751.1272727272727 964 751.1272727272727 972 L 751.1272727272727 1048" fill="none" stroke="#94a3b8" stroke-width="4.2" marker-end="url(#arr94a3b8)" opacity="1"/>
<path d="M 1216.7522727272726 240 L 1216.7522727272726 266 Q 1216.7522727272726 274 1224.7522727272726 274 L 1273.6272727272726 274 Q 1281.6272727272726 274 1281.6272727272726 282 L 1281.6272727272726 854 Q 1281.6272727272726 862 1273.6272727272726 862 L 862.1272727272727 862 Q 854.1272727272727 862 854.1272727272727 870 L 854.1272727272727 896" fill="none" stroke="#94a3b8" stroke-width="1.5" marker-end="url(#arr94a3b8)" opacity="1"/>
<path d="M 1244.6272727272726 240 L 1244.6272727272726 256 Q 1244.6272727272726 264 1252.6272727272726 264 L 1284.6272727272726 264 Q 1292.6272727272726 264 1292.6272727272726 272 L 1292.6272727272726 1016 Q 1292.6272727272726 1024 1284.6272727272726 1024 L 795.1272727272727 1024 Q 787.1272727272727 1024 787.1272727272727 1032 L 787.1272727272727 1048" fill="none" stroke="#94a3b8" stroke-width="1.5" marker-end="url(#arr94a3b8)" opacity="1"/>
<path d="M 1188.8772727272726 240 L 1188.8772727272726 310" fill="none" stroke="#94a3b8" stroke-width="1.5" marker-end="url(#arr94a3b8)" opacity="1"/>
<path d="M 1134.5022727272726 468 L 1134.5022727272726 484 Q 1134.5022727272726 492 1126.5022727272726 492 L 831.5272727272727 492 Q 823.5272727272727 492 823.5272727272727 500 L 823.5272727272727 538" fill="none" stroke="#94a3b8" stroke-width="1.5" marker-end="url(#arr94a3b8)" opacity="1"/>
<path d="M 1209.2522727272726 468 L 1209.2522727272726 996 Q 1209.2522727272726 1004 1201.2522727272726 1004 L 783.1272727272727 1004 Q 775.1272727272727 1004 775.1272727272727 1012 L 775.1272727272727 1048" fill="none" stroke="#94a3b8" stroke-width="1.5" marker-end="url(#arr94a3b8)" opacity="1"/>
<path d="M 1171.8772727272726 468 L 1171.8772727272726 732 Q 1171.8772727272726 740 1163.8772727272726 740 L 511.72727272727275 740 Q 503.72727272727275 740 503.72727272727275 748 L 503.72727272727275 774" fill="none" stroke="#94a3b8" stroke-width="1.5" marker-end="url(#arr94a3b8)" opacity="1"/>
<path d="M 770.7272727272727 582 L 770.7272727272727 652" fill="none" stroke="#94a3b8" stroke-width="1.5" marker-end="url(#arr94a3b8)" opacity="1"/>
<path d="M 809.1272727272727 582 L 809.1272727272727 608 Q 809.1272727272727 616 817.1272727272727 616 L 899.1272727272727 616 Q 907.1272727272727 616 907.1272727272727 624 L 907.1272727272727 774" fill="none" stroke="#94a3b8" stroke-width="1.5" marker-end="url(#arr94a3b8)" opacity="1"/>
<path d="M 828.3272727272727 582 L 828.3272727272727 598 Q 828.3272727272727 606 836.3272727272727 606 L 1053.1272727272726 606 Q 1061.1272727272726 606 1061.1272727272726 614 L 1061.1272727272726 986 Q 1061.1272727272726 994 1053.1272727272726 994 L 777.1272727272727 994 Q 769.1272727272727 994 769.1272727272727 1002 L 769.1272727272727 1048" fill="none" stroke="#94a3b8" stroke-width="6" marker-end="url(#arr94a3b8)" opacity="1"/>
<path d="M 789.9272727272727 582 L 789.9272727272727 618 Q 789.9272727272727 626 797.9272727272727 626 L 818.7272727272727 626 Q 826.7272727272727 626 826.7272727272727 634 L 826.7272727272727 722 Q 826.7272727272727 730 818.7272727272727 730 L 499.72727272727275 730 Q 491.72727272727275 730 491.72727272727275 738 L 491.72727272727275 774" fill="none" stroke="#94a3b8" stroke-width="1.5" marker-end="url(#arr94a3b8)" opacity="1"/>
<path d="M 343.1272727272728 354 L 343.1272727272728 390 Q 343.1272727272728 398 351.1272727272728 398 L 387.72727272727275 398 Q 395.72727272727275 398 395.72727272727275 406 L 395.72727272727275 424" fill="none" stroke="#94a3b8" stroke-width="1.5" marker-end="url(#arr94a3b8)" opacity="1"/>
<path d="M 322.72727272727275 354 L 322.72727272727275 986 Q 322.72727272727275 994 330.72727272727275 994 L 713.1272727272727 994 Q 721.1272727272727 994 721.1272727272727 1002 L 721.1272727272727 1048" fill="none" stroke="#94a3b8" stroke-width="3.3" marker-end="url(#arr94a3b8)" opacity="1"/>
<path d="M 363.52727272727276 354 L 363.52727272727276 380 Q 363.52727272727276 388 371.52727272727276 388 L 459.72727272727275 388 Q 467.72727272727275 388 467.72727272727275 396 L 467.72727272727275 774" fill="none" stroke="#94a3b8" stroke-width="1.5" marker-end="url(#arr94a3b8)" opacity="1"/>
<path d="M 867.1272727272727 818 L 867.1272727272727 834 Q 867.1272727272727 842 859.1272727272727 842 L 838.1272727272727 842 Q 830.1272727272727 842 830.1272727272727 850 L 830.1272727272727 896" fill="none" stroke="#94a3b8" stroke-width="1.5" marker-end="url(#arr94a3b8)" opacity="1"/>
<path d="M 915.1272727272727 818 L 915.1272727272727 864 Q 915.1272727272727 872 923.1272727272727 872 L 968.6272727272727 872 Q 976.6272727272727 872 976.6272727272727 880 L 976.6272727272727 896" fill="none" stroke="#94a3b8" stroke-width="1.5" marker-end="url(#arr94a3b8)" opacity="1"/>
<path d="M 891.1272727272727 818 L 891.1272727272727 966 Q 891.1272727272727 974 883.1272727272727 974 L 765.1272727272727 974 Q 757.1272727272727 974 757.1272727272727 982 L 757.1272727272727 1048" fill="none" stroke="#94a3b8" stroke-width="1.5" marker-end="url(#arr94a3b8)" opacity="1"/>
<path d="M 976.6272727272727 940 L 976.6272727272727 976 Q 976.6272727272727 984 968.6272727272727 984 L 771.1272727272727 984 Q 763.1272727272727 984 763.1272727272727 992 L 763.1272727272727 1048" fill="none" stroke="#94a3b8" stroke-width="2.4" marker-end="url(#arr94a3b8)" opacity="1"/>
<path d="M 250.72727272727272 696 L 250.72727272727272 854 Q 250.72727272727272 862 258.72727272727275 862 L 774.1272727272727 862 Q 782.1272727272727 862 782.1272727272727 870 L 782.1272727272727 896" fill="none" stroke="#94a3b8" stroke-width="1.5" marker-end="url(#arr94a3b8)" opacity="1"/>
<path d="M 226.72727272727272 696 L 226.72727272727272 996 Q 226.72727272727272 1004 234.72727272727272 1004 L 707.1272727272727 1004 Q 715.1272727272727 1004 715.1272727272727 1012 L 715.1272727272727 1048" fill="none" stroke="#94a3b8" stroke-width="2.4" marker-end="url(#arr94a3b8)" opacity="1"/>
<path d="M 274.72727272727275 696 L 274.72727272727275 712 Q 274.72727272727275 720 282.72727272727275 720 L 447.72727272727275 720 Q 455.72727272727275 720 455.72727272727275 728 L 455.72727272727275 774" fill="none" stroke="#94a3b8" stroke-width="1.5" marker-end="url(#arr94a3b8)" opacity="1"/>
<path d="M 1072.1272727272726 582 L 1072.1272727272726 844 Q 1072.1272727272726 852 1064.1272727272726 852 L 850.1272727272727 852 Q 842.1272727272727 852 842.1272727272727 860 L 842.1272727272727 896" fill="none" stroke="#94a3b8" stroke-width="2.4" marker-end="url(#arr94a3b8)" opacity="1"/>
<path d="M 1171.8772727272726 354 L 1171.8772727272726 424" fill="none" stroke="#94a3b8" stroke-width="1.5" marker-end="url(#arr94a3b8)" opacity="1"/>
<path d="M 1205.8772727272726 354 L 1205.8772727272726 370 Q 1205.8772727272726 378 1213.8772727272726 378 L 1262.6272727272726 378 Q 1270.6272727272726 378 1270.6272727272726 386 L 1270.6272727272726 1006 Q 1270.6272727272726 1014 1262.6272727272726 1014 L 789.1272727272727 1014 Q 781.1272727272727 1014 781.1272727272727 1022 L 781.1272727272727 1048" fill="none" stroke="#94a3b8" stroke-width="1.5" marker-end="url(#arr94a3b8)" opacity="1"/>
<path d="M 625.7272727272727 818 L 625.7272727272727 844 Q 625.7272727272727 852 633.7272727272727 852 L 786.1272727272727 852 Q 794.1272727272727 852 794.1272727272727 860 L 794.1272727272727 896" fill="none" stroke="#94a3b8" stroke-width="1.5" marker-end="url(#arr94a3b8)" opacity="1"/>
<path d="M 593.7272727272727 818 L 593.7272727272727 956 Q 593.7272727272727 964 601.7272727272727 964 L 731.1272727272727 964 Q 739.1272727272727 964 739.1272727272727 972 L 739.1272727272727 1048" fill="none" stroke="#94a3b8" stroke-width="1.5" marker-end="url(#arr94a3b8)" opacity="1"/>
<path d="M 467.72727272727275 818 L 467.72727272727275 966 Q 467.72727272727275 974 475.72727272727275 974 L 725.1272727272727 974 Q 733.1272727272727 974 733.1272727272727 982 L 733.1272727272727 1048" fill="none" stroke="#94a3b8" stroke-width="3.3" marker-end="url(#arr94a3b8)" opacity="1"/>
<path d="M 383.9272727272728 354 L 383.9272727272728 370 Q 383.9272727272728 378 391.9272727272728 378 L 601.7272727272727 378 Q 609.7272727272727 378 609.7272727272727 386 L 609.7272727272727 774" fill="none" stroke="#dc2626" stroke-width="1.5" stroke-dasharray="2 3" marker-end="url(#arrdc2626)" opacity="1"/>
<g><rect x="593.7272727272727" y="367" width="32" height="20" rx="10" fill="#fff" stroke="#dc2626" stroke-width="1.2"/><text x="609.7272727272727" y="382" text-anchor="middle" font-size="12" >🚫</text></g>
<g opacity="1"><rect x="24" y="24" width="96" height="44" rx="10" fill="#f8fafc" stroke="#94a3b8" stroke-width="1.4"/><text x="72" y="51" text-anchor="middle" font-size="14" font-weight="600" fill="#334155">api</text></g>
<g opacity="1"><rect x="57.72727272727273" y="652" width="96" height="44" rx="10" fill="#f8fafc" stroke="#94a3b8" stroke-width="1.4"/><text x="105.72727272727272" y="679" text-anchor="middle" font-size="14" font-weight="600" fill="#334155">auth</text></g>
<g opacity="1"><rect x="347.72727272727275" y="424" width="96" height="44" rx="10" fill="#f8fafc" stroke="#94a3b8" stroke-width="1.4"/><text x="395.72727272727275" y="451" text-anchor="middle" font-size="14" font-weight="600" fill="#334155">billing</text></g>
<g opacity="1"><rect x="706.7272727272727" y="652" width="96" height="44" rx="10" fill="#f8fafc" stroke="#94a3b8" stroke-width="1.4"/><text x="754.7272727272727" y="679" text-anchor="middle" font-size="14" font-weight="600" fill="#334155">cart</text></g>
<g opacity="1"><rect x="770.1272727272727" y="896" width="96" height="44" rx="10" fill="#f8fafc" stroke="#94a3b8" stroke-width="1.4"/><text x="818.1272727272727" y="923" text-anchor="middle" font-size="14" font-weight="600" fill="#334155">catalog</text></g>
<g opacity="1"><rect x="1161.0022727272726" y="196" width="111.5" height="44" rx="10" fill="#f8fafc" stroke="#94a3b8" stroke-width="1.4"/><text x="1216.7522727272726" y="223" text-anchor="middle" font-size="14" font-weight="600" fill="#334155">inventory</text></g>
<g opacity="1"><rect x="1097.1272727272726" y="424" width="149.5" height="44" rx="10" fill="#f8fafc" stroke="#94a3b8" stroke-width="1.4"/><text x="1171.8772727272726" y="451" text-anchor="middle" font-size="14" font-weight="600" fill="#334155">notifications</text></g>
<g opacity="1"><rect x="751.5272727272727" y="538" width="96" height="44" rx="10" fill="#f8fafc" stroke="#94a3b8" stroke-width="1.4"/><text x="799.5272727272727" y="565" text-anchor="middle" font-size="14" font-weight="600" fill="#334155">orders</text></g>
<g opacity="1"><rect x="302.32727272727277" y="310" width="102" height="44" rx="10" fill="rgb(220,38,38)" stroke="#94a3b8" stroke-width="1.4"/><text x="353.32727272727277" y="337" text-anchor="middle" font-size="14" font-weight="600" fill="#334155">payments</text></g>
<g opacity="1"><rect x="843.1272727272727" y="774" width="96" height="44" rx="10" fill="#f8fafc" stroke="#94a3b8" stroke-width="1.4"/><text x="891.1272727272727" y="801" text-anchor="middle" font-size="14" font-weight="600" fill="#334155">pricing</text></g>
<g opacity="1"><rect x="916.1272727272727" y="896" width="121" height="44" rx="10" fill="#f8fafc" stroke="#94a3b8" stroke-width="1.4"/><text x="976.6272727272727" y="923" text-anchor="middle" font-size="14" font-weight="600" fill="#334155">promotions</text></g>
<g opacity="1"><rect x="202.72727272727272" y="652" width="96" height="44" rx="10" fill="#f8fafc" stroke="#94a3b8" stroke-width="1.4"/><text x="250.72727272727272" y="679" text-anchor="middle" font-size="14" font-weight="600" fill="#334155">reviews</text></g>
<g opacity="1"><rect x="1024.1272727272726" y="538" width="96" height="44" rx="10" fill="#f8fafc" stroke="#94a3b8" stroke-width="1.4"/><text x="1072.1272727272726" y="565" text-anchor="middle" font-size="14" font-weight="600" fill="#334155">search</text></g>
<g opacity="1"><rect x="697.1272727272727" y="1048" width="96" height="44" rx="10" fill="#f8fafc" stroke="#94a3b8" stroke-width="1.4"/><text x="745.1272727272727" y="1075" text-anchor="middle" font-size="14" font-weight="600" fill="#334155">shared</text></g>
<g opacity="1"><rect x="1137.8772727272726" y="310" width="102" height="44" rx="10" fill="#f8fafc" stroke="#94a3b8" stroke-width="1.4"/><text x="1188.8772727272726" y="337" text-anchor="middle" font-size="14" font-weight="600" fill="#334155">shipping</text></g>
<g opacity="1"><rect x="561.7272727272727" y="774" width="96" height="44" rx="10" fill="rgb(253,186,116)" stroke="#94a3b8" stroke-width="1.4"/><text x="609.7272727272727" y="801" text-anchor="middle" font-size="14" font-weight="600" fill="#334155">ui</text></g>
<g opacity="1"><rect x="419.72727272727275" y="774" width="96" height="44" rx="10" fill="#f8fafc" stroke="#94a3b8" stroke-width="1.4"/><text x="467.72727272727275" y="801" text-anchor="middle" font-size="14" font-weight="600" fill="#334155">users</text></g>
</g>
<g font-size="12" fill="#64748b">
<rect x="24" y="1198" width="14" height="14" rx="4" fill="#16a34a"/>
<text x="44" y="1209">added</text>
<rect x="107" y="1198" width="14" height="14" rx="4" fill="#9ca3af"/>
<text x="127" y="1209">removed</text>
<rect x="204" y="1198" width="14" height="14" rx="4" fill="#dc2626"/>
<text x="224" y="1209">forbidden</text>
<rect x="315" y="1198" width="14" height="14" rx="4" fill="#f59e0b"/>
<text x="335" y="1209">cycle</text>
<rect x="398" y="1198" width="14" height="14" rx="4" fill="#7c3aed"/>
<text x="418" y="1209">strengthened</text>
<text x="530" y="1209">heat:</text>
<rect x="568" y="1198" width="16" height="14" fill="#f1f5f9"/>
<rect x="584" y="1198" width="16" height="14" fill="rgb(254,240,138)"/>
<rect x="600" y="1198" width="16" height="14" fill="rgb(253,186,116)"/>
<rect x="616" y="1198" width="16" height="14" fill="rgb(248,113,113)"/>
<rect x="632" y="1198" width="16" height="14" fill="rgb(220,38,38)"/>
<text x="654" y="1209">churn</text>
</g>
</svg>