<svg xmlns="http://www.w3.org/2000/svg" viewBox="0 0 1444.125 1258" width="1444.125" height="1258" font-family="Segoe UI, system-ui, sans-serif">
<rect width="1444.125" height="1258" fill="#ffffff"/>
<defs>
<marker id="arr94a3b8" viewBox="0 0 10 10" refX="9" refY="5" markerWidth="7" markerHeight="7" orient="auto-start-reverse"><path d="M 0 1 L 9 5 L 0 9 z" fill="#94a3b8"/></marker>
<marker id="arr16a34a" viewBox="0 0 10 10" refX="9" refY="5" markerWidth="7" markerHeight="7" orient="auto-start-reverse"><path d="M 0 1 L 9 5 L 0 9 z" fill="#16a34a"/></marker>
<marker id="arrc2c7cf" viewBox="0 0 10 10" refX="9" refY="5" markerWidth="7" markerHeight="7" orient="auto-start-reverse"><path d="M 0 1 L 9 5 L 0 9 z" fill="#c2c7cf"/></marker>
</defs>
<text x="722.0625" y="28" text-anchor="middle" font-size="17" font-weight="700" fill="#1e293b">Architecture impact — shopstream (main → d298c7f8de6edbfef70ff7fa6bfe90266e5bda57)</text>
<g transform="translate(24,52)">
<path d="M 1246.5568181818182 68 L 1246.5568181818182 94 Q 1246.5568181818182 102 1238.5568181818182 102 L 138 102 Q 130 102 130 110 L 130 652" fill="none" stroke="#94a3b8" stroke-width="2.4" marker-end="url(#arr94a3b8)" opacity="1"/>
<path d="M 1281.465909090909 68 L 1281.465909090909 134 Q 1281.465909090909 142 1273.465909090909 142 L 523.5 142 Q 515.5 142 515.5 150 L 515.5 652" fill="none" stroke="#94a3b8" stroke-width="2.4" marker-end="url(#arr94a3b8)" opacity="1"/>
<path d="M 1290.1931818181818 68 L 1290.1931818181818 144 Q 1290.1931818181818 152 1282.1931818181818 152 L 611.5 152 Q 603.5 152 603.5 160 L 603.5 874 Q 603.5 882 611.5 882 L 645.5 882 Q 653.5 882 653.5 890 L 653.5 928" fill="none" stroke="#94a3b8" stroke-width="3.3" marker-end="url(#arr94a3b8)" opacity="1"/>
<path d="M 1316.375 68 L 1316.375 196" fill="none" stroke="#94a3b8" stroke-width="2.4" marker-end="url(#arr94a3b8)" opacity="1"/>
<path d="M 1307.6477272727273 68 L 1307.6477272727273 164 Q 1307.6477272727273 172 1299.6477272727273 172 L 925.25 172 Q 917.25 172 917.25 180 L 917.25 484 Q 917.25 492 909.25 492 L 850.5 492 Q 842.5 492 842.5 500 L 842.5 538" fill="none" stroke="#94a3b8" stroke-width="3.3" marker-end="url(#arr94a3b8)" opacity="1"/>
<path d="M 1264.0113636363637 68 L 1264.0113636363637 114 Q 1264.0113636363637 122 1256.0113636363637 122 L 286 122 Q 278 122 278 130 L 278 310" fill="none" stroke="#94a3b8" stroke-width="3.3" marker-end="url(#arr94a3b8)" opacity="1"/>
<path d="M 1272.7386363636365 68 L 1272.7386363636365 124 Q 1272.7386363636365 132 1264.7386363636365 132 L 383.5 132 Q 375.5 132 375.5 140 L 375.5 652" fill="none" stroke="#94a3b8" stroke-width="2.4" marker-end="url(#arr94a3b8)" opacity="1"/>
<path d="M 1298.9204545454545 68 L 1298.9204545454545 154 Q 1298.9204545454545 162 1290.9204545454545 162 L 684.5 162 Q 676.5 162 676.5 170 L 676.5 538" fill="none" stroke="#94a3b8" stroke-width="2.4" marker-end="url(#arr94a3b8)" opacity="1"/>
<path d="M 1237.8295454545455 68 L 1237.8295454545455 84 Q 1237.8295454545455 92 1229.8295454545455 92 L 32 92 Q 24 92 24 100 L 24 1048 Q 24 1056 32 1056 L 204.5 1056 Q 212.5 1056 212.5 1064 L 212.5 1080" fill="none" stroke="#94a3b8" stroke-width="1.5" marker-end="url(#arr94a3b8)" opacity="1"/>
<path d="M 1255.284090909091 68 L 1255.284090909091 104 Q 1255.284090909091 112 1247.284090909091 112 L 210 112 Q 202 112 202 120 L 202 712 Q 202 720 194 720 L 166.5 720 Q 158.5 720 158.5 728 L 158.5 814" fill="none" stroke="#94a3b8" stroke-width="3.3" marker-end="url(#arr94a3b8)" opacity="1"/>
<path d="M 114 696 L 114 712 Q 114 720 106 720 L 43 720 Q 35 720 35 728 L 35 1038 Q 35 1046 43 1046 L 210.5 1046 Q 218.5 1046 218.5 1054 L 218.5 1080" fill="none" stroke="#94a3b8" stroke-width="2.4" marker-end="url(#arr94a3b8)" opacity="1"/>
<path d="M 146 696 L 146 732 Q 146 740 154 740 L 138.5 740 Q 146.5 740 146.5 748 L 146.5 814" fill="none" stroke="#94a3b8" stroke-width="1.5" marker-end="url(#arr94a3b8)" opacity="1"/>
<path d="M 319.5 468 L 319.5 494 Q 319.5 502 327.5 502 L 786.5 502 Q 794.5 502 794.5 510 L 794.5 538" fill="none" stroke="#94a3b8" stroke-width="1.5" marker-end="url(#arr94a3b8)" opacity="1"/>
<path d="M 287.5 468 L 287.5 484 Q 287.5 492 279.5 492 L 65 492 Q 57 492 57 500 L 57 1018 Q 57 1026 65 1026 L 222.5 1026 Q 230.5 1026 230.5 1034 L 230.5 1080" fill="none" stroke="#94a3b8" stroke-width="2.4" marker-end="url(#arr94a3b8)" opacity="1"/>
<path d="M 541.1 696 L 541.1 722 Q 541.1 730 549.1 730 L 657.5 730 Q 665.5 730 665.5 738 L 665.5 928" fill="none" stroke="#94a3b8" stroke-width="1.5" marker-end="url(#arr94a3b8)" opacity="1"/>
<path d="M 560.3 696 L 560.3 712 Q 560.3 720 568.3 720 L 1117.25 720 Q 1125.25 720 1125.25 728 L 1125.25 814" fill="none" stroke="#94a3b8" stroke-width="1.5" marker-end="url(#arr94a3b8)" opacity="1"/>
<path d="M 521.9 696 L 521.9 782 Q 521.9 790 513.9 790 L 262.5 790 Q 254.5 790 254.5 798 L 254.5 1080" fill="none" stroke="#94a3b8" stroke-width="2.4" marker-end="url(#arr94a3b8)" opacity="1"/>
<path d="M 502.7 696 L 494.70000000000005 772 Q 502.70000000000005 780 494.70000000000005 780 L 226.5 780 Q 218.5 780 218.5 788 L 218.5 814" fill="none" stroke="#94a3b8" stroke-width="1.5" marker-end="url(#arr94a3b8)" opacity="1"/>
<path d="M 665.5 972 L 665.5 988 Q 665.5 996 657.5 996 L 268.5 996 Q 260.5 996 260.5 1004 L 260.5 1080" fill="none" stroke="#94a3b8" stroke-width="4.2" marker-end="url(#arr94a3b8)" opacity="1"/>
<path d="M 1316.375 240 L 1316.375 266 Q 1316.375 274 1308.375 274 L 1076.25 274 Q 1068.25 274 1068.25 282 L 1068.25 874 Q 1068.25 882 1060.25 882 L 697.5 882 Q 689.5 882 689.5 890 L 689.5 928" fill="none" stroke="#94a3b8" stroke-width="1.5" marker-end="url(#arr94a3b8)" opacity="1"/>
<path d="M 1344.25 240 L 1344.25 1048 Q 1344.25 1056 1336.25 1056 L 304.5 1056 Q 296.5 1056 296.5 1064 L 296.5 1080" fill="none" stroke="#94a3b8" stroke-width="1.5" marker-end="url(#arr94a3b8)" opacity="1"/>
<path d="M 1288.5 240 L 1288.5 256 Q 1288.5 264 1280.5 264 L 1001.25 264 Q 993.25 264 993.25 272 L 993.25 310" fill="none" stroke="#94a3b8" stroke-width="1.5" marker-end="url(#arr94a3b8)" opacity="1"/>
<path d="M 818.5 468 L 818.5 538" fill="none" stroke="#94a3b8" stroke-width="1.5" marker-end="url(#arr94a3b8)" opacity="1"/>
<path d="M 855.875 468 L 855.875 494 Q 855.875 502 863.875 502 L 1314.25 502 Q 1322.25 502 1322.25 510 L 1322.25 1028 Q 1322.25 1036 1314.25 1036 L 292.5 1036 Q 284.5 1036 284.5 1044 L 284.5 1080" fill="none" stroke="#94a3b8" stroke-width="1.5" marker-end="url(#arr94a3b8)" opacity="1"/>
<path d="M 781.125 468 L 781.125 484 Q 781.125 492 773.125 492 L 466.5 492 Q 458.5 492 458.5 500 L 458.5 762 Q 458.5 770 450.5 770 L 214.5 770 Q 206.5 770 206.5 778 L 206.5 814" fill="none" stroke="#94a3b8" stroke-width="1.5" marker-end="url(#arr94a3b8)" opacity="1"/>
<path d="M 802.5 582 L 802.5 608 Q 802.5 616 794.5 616 L 555.5 616 Q 547.5 616 547.5 624 L 547.5 652" fill="none" stroke="#94a3b8" stroke-width="2.4" marker-end="url(#arr94a3b8)" opacity="1"/>
<path d="M 850.5 582 L 850.5 598 Q 850.5 606 858.5 606 L 1303.25 606 Q 1311.25 606 1311.25 614 L 1311.25 1018 Q 1311.25 1026 1303.25 1026 L 286.5 1026 Q 278.5 1026 278.5 1034 L 278.5 1080" fill="none" stroke="#94a3b8" stroke-width="7" marker-end="url(#arr94a3b8)" opacity="1"/>
<path d="M 786.5 582 L 786.5 598 Q 786.5 606 778.5 606 L 455.5 606 Q 447.5 606 447.5 614 L 447.5 752 Q 447.5 760 439.5 760 L 202.5 760 Q 194.5 760 194.5 768 L 194.5 814" fill="none" stroke="#94a3b8" stroke-width="2.4" marker-end="url(#arr94a3b8)" opacity="1"/>
<path d="M 303.5 354 L 303.5 424" fill="none" stroke="#94a3b8" stroke-width="1.5" marker-end="url(#arr94a3b8)" opacity="1"/>
<path d="M 252.5 354 L 252.5 370 Q 252.5 378 244.5 378 L 54 378 Q 46 378 46 386 L 46 1028 Q 46 1036 54 1036 L 216.5 1036 Q 224.5 1036 224.5 1044 L 224.5 1080" fill="none" stroke="#94a3b8" stroke-width="2.4" marker-end="url(#arr94a3b8)" opacity="1"/>
<path d="M 278 354 L 278 380 Q 278 388 270 388 L 238.5 388 Q 230.5 388 230.5 396 L 230.5 732 Q 230.5 740 222.5 740 L 178.5 740 Q 170.5 740 170.5 748 L 170.5 814" fill="none" stroke="#94a3b8" stroke-width="1.5" marker-end="url(#arr94a3b8)" opacity="1"/>
<path d="M 1117.25 858 L 1117.25 884 Q 1117.25 892 1109.25 892 L 709.5 892 Q 701.5 892 701.5 900 L 701.5 928" fill="none" stroke="#94a3b8" stroke-width="1.5" marker-end="url(#arr94a3b8)" opacity="1"/>
<path d="M 1165.25 858 L 1165.25 874 Q 1165.25 882 1173.25 882 L 1198.5833333333333 882 Q 1206.5833333333333 882 1206.5833333333333 890 L 1206.5833333333333 928" fill="none" stroke="#94a3b8" stroke-width="1.5" marker-end="url(#arr94a3b8)" opacity="1"/>
<path d="M 1141.25 858 L 1141.25 998 Q 1141.25 1006 1133.25 1006 L 274.5 1006 Q 266.5 1006 266.5 1014 L 266.5 1080" fill="none" stroke="#94a3b8" stroke-width="1.5" marker-end="url(#arr94a3b8)" opacity="1"/>
<path d="M 1226.75 972 L 1226.75 1008 Q 1226.75 1016 1218.75 1016 L 280.5 1016 Q 272.5 1016 272.5 1024 L 272.5 1080" fill="none" stroke="#94a3b8" stroke-width="2.4" marker-end="url(#arr94a3b8)" opacity="1"/>
<path d="M 399.5 696 L 399.5 884 Q 399.5 892 407.5 892 L 633.5 892 Q 641.5 892 641.5 900 L 641.5 928" fill="none" stroke="#94a3b8" stroke-width="1.5" marker-end="url(#arr94a3b8)" opacity="1"/>
<path d="M 351.5 696 L 351.5 722 Q 351.5 730 343.5 730 L 117.5 730 Q 109.5 730 109.5 738 L 109.5 1008 Q 109.5 1016 117.5 1016 L 228.5 1016 Q 236.5 1016 236.5 1024 L 236.5 1080" fill="none" stroke="#94a3b8" stroke-width="2.4" marker-end="url(#arr94a3b8)" opacity="1"/>
<path d="M 375.5 696 L 375.5 742 Q 375.5 750 367.5 750 L 190.5 750 Q 182.5 750 182.5 758 L 182.5 814" fill="none" stroke="#94a3b8" stroke-width="1.5" marker-end="url(#arr94a3b8)" opacity="1"/>
<path d="M 676.5 582 L 676.5 874 Q 676.5 882 684.5 882 L 669.5 882 Q 677.5 882 677.5 890 L 677.5 928" fill="none" stroke="#94a3b8" stroke-width="2.4" marker-end="url(#arr94a3b8)" opacity="1"/>
<path d="M 976.25 354 L 976.25 370 Q 976.25 378 968.25 378 L 826.5 378 Q 818.5 378 818.5 386 L 818.5 424" fill="none" stroke="#94a3b8" stroke-width="1.5" marker-end="url(#arr94a3b8)" opacity="1"/>
<path d="M 1010.25 354 L 1010.25 370 Q 1010.25 378 1018.25 378 L 1325.25 378 Q 1333.25 378 1333.25 386 L 1333.25 1038 Q 1333.25 1046 1325.25 1046 L 298.5 1046 Q 290.5 1046 290.5 1054 L 290.5 1080" fill="none" stroke="#94a3b8" stroke-width="1.5" marker-end="url(#arr94a3b8)" opacity="1"/>
<path d="M 343.5 858 L 343.5 894 Q 343.5 902 351.5 902 L 621.5 902 Q 629.5 902 629.5 910 L 629.5 928" fill="none" stroke="#94a3b8" stroke-width="1.5" marker-end="url(#arr94a3b8)" opacity="1"/>
<path d="M 311.5 858 L 311.5 874 Q 311.5 882 303.5 882 L 251.5 882 Q 243.5 882 243.5 890 L 243.5 988 Q 243.5 996 251.5 996 L 240.5 996 Q 248.5 996 248.5 1004 L 248.5 1080" fill="none" stroke="#94a3b8" stroke-width="1.5" marker-end="url(#arr94a3b8)" opacity="1"/>
<path d="M 182.5 858 L 182.5 998 Q 182.5 1006 190.5 1006 L 234.5 1006 Q 242.5 1006 242.5 1014 L 242.5 1080" fill="none" stroke="#94a3b8" stroke-width="3.3" marker-end="url(#arr94a3b8)" opacity="1"/>
<path d="M 834.5 582 L 834.5 608 Q 834.5 616 842.5 616 L 1238.9166666666667 616 Q 1246.9166666666667 616 1246.9166666666667 624 L 1246.9166666666667 928" fill="none" stroke="#16a34a" stroke-width="1.5" marker-end="url(#arr16a34a)" opacity="1"/>
<path d="M 818.5 582 L 818.5 618 Q 818.5 626 826.5 626 L 1149.25 626 Q 1157.25 626 1157.25 634 L 1157.25 814" fill="none" stroke="#c2c7cf" stroke-width="1.5" stroke-dasharray="6 5" marker-end="url(#arrc2c7cf)" opacity="0.65"/>
<g opacity="1"><rect x="1229.1022727272727" y="24" width="96" height="44" rx="10" fill="#f8fafc" stroke="#94a3b8" stroke-width="1.4"/><text x="1277.1022727272727" y="51" text-anchor="middle" font-size="14" font-weight="600" fill="#334155">api</text></g>
<g opacity="1"><rect x="82" y="652" width="96" height="44" rx="10" fill="#f8fafc" stroke="#94a3b8" stroke-width="1.4"/><text x="130" y="679" text-anchor="middle" font-size="14" font-weight="600" fill="#334155">auth</text></g>
<g opacity="1"><rect x="255.5" y="424" width="96" height="44" rx="10" fill="#f8fafc" stroke="#94a3b8" stroke-width="1.4"/><text x="303.5" y="451" text-anchor="middle" font-size="14" font-weight="600" fill="#334155">billing</text></g>
<g opacity="1"><rect x="483.5" y="652" width="96" height="44" rx="10" fill="#f8fafc" stroke="#94a3b8" stroke-width="1.4"/><text x="531.5" y="679" text-anchor="middle" font-size="14" font-weight="600" fill="#334155">cart</text></g>
<g opacity="1"><rect x="617.5" y="928" width="96" height="44" rx="10" fill="#f8fafc" stroke="#94a3b8" stroke-width="1.4"/><text x="665.5" y="955" text-anchor="middle" font-size="14" font-weight="600" fill="#334155">catalog</text></g>
<g opacity="1"><rect x="1260.625" y="196" width="111.5" height="44" rx="10" fill="#f8fafc" stroke="#94a3b8" stroke-width="1.4"/><text x="1316.375" y="223" text-anchor="middle" font-size="14" font-weight="600" fill="#334155">inventory</text></g>
<g opacity="1"><rect x="743.75" y="424" width="149.5" height="44" rx="10" fill="#f8fafc" stroke="#94a3b8" stroke-width="1.4"/><text x="818.5" y="451" text-anchor="middle" font-size="14" font-weight="600" fill="#334155">notifications</text></g>
<g opacity="1"><rect x="770.5" y="538" width="96" height="44" rx="10" fill="rgb(220,38,38)" stroke="#94a3b8" stroke-width="1.4"/><text x="818.5" y="565" text-anchor="middle" font-size="14" font-weight="600" fill="#334155">orders</text></g>
<g opacity="1"><rect x="227" y="310" width="102" height="44" rx="10" fill="#f8fafc" stroke="#94a3b8" stroke-width="1.4"/><text x="278" y="337" text-anchor="middle" font-size="14" font-weight="600" fill="#334155">payments</text></g>
<g opacity="1"><rect x="1093.25" y="814" width="96" height="44" rx="10" fill="rgb(248,243,194)" stroke="#94a3b8" stroke-width="1.4"/><text x="1141.25" y="841" text-anchor="middle" font-size="14" font-weight="600" fill="#334155">pricing</text></g>
<g opacity="1"><rect x="1166.25" y="928" width="121" height="44" rx="10" fill="rgb(248,243,194)" stroke="#94a3b8" stroke-width="1.4"/><text x="1226.75" y="955" text-anchor="middle" font-size="14" font-weight="600" fill="#334155">promotions</text></g>
<g opacity="1"><rect x="327.5" y="652" width="96" height="44" rx="10" fill="#f8fafc" stroke="#94a3b8" stroke-width="1.4"/><text x="375.5" y="679" text-anchor="middle" font-size="14" font-weight="600" fill="#334155">reviews</text></g>
<g opacity="1"><rect x="628.5" y="538" width="96" height="44" rx="10" fill="#f8fafc" stroke="#94a3b8" stroke-width="1.4"/><text x="676.5" y="565" text-anchor="middle" font-size="14" font-weight="600" fill="#334155">search</text></g>
<g opacity="1"><rect x="206.5" y="1080" width="96" height="44" rx="10" fill="#f8fafc" stroke="#94a3b8" stroke-width="1.4"/><text x="254.5" y="1107" text-anchor="middle" font-size="14" font-weight="600" fill="#334155">shared</text></g>
<g opacity="1"><rect x="942.25" y="310" width="102" height="44" rx="10" fill="#f8fafc" stroke="#94a3b8" stroke-width="1.4"/><text x="993.25" y="337" text-anchor="middle" font-size="14" font-weight="600" fill="#334155">shipping</text></g>
<g opacity="1"><rect x="279.5" y="814" width="96" height="44" rx="10" fill="#f8fafc" stroke="#94a3b8" stroke-width="1.4"/><text x="327.5" y="841" text-anchor="middle" font-size="14" font-weight="600" fill="#334155">ui</text></g>
<g opacity="1"><rect x="134.5" y="814" width="96" height="44" rx="10" fill="#f8fafc" stroke="#94a3b8" stroke-width="1.4"/><text x="182.5" y="841" text-anchor="middle" font-size="14" font-weight="600" fill="#334155">users</text></g>
</g>
<g font-size="12" fill="#64748b">
<rect x="24" y="1230" width="14" height="14" rx="4" fill="#16a34a"/>
<text x="44" y="1241">added</text>
<rect x="107" y="1230" width="14" height="14" rx="4" fill="#9ca3af"/>
<text x="127" y="1241">removed</text>
<rect x="204" y="1230" width="14" height="14" rx="4" fill="#dc2626"/>
<text x="224" y="1241">forbidden</text>
<rect x="315" y="1230" width="14" height="14" rx="4" fill="#f59e0b"/>
<text x="335" y="1241">cycle</text>
<rect x="398" y="1230" width="14" height="14" rx="4" fill="#7c3aed"/>
<text x="418" y="1241">strengthened</text>
<text x="530" y="1241">heat:</text>
<rect x="568" y="1230" width="16" height="14" fill="#f1f5f9"/>
<rect x="584" y="1230" width="16" height="14" fill="rgb(254,240,138)"/>
<rect x="600" y="1230" width="16" height="14" fill="rgb(253,186,116)"/>
<rect x="616" y="1230" width="16" height="14" fill="rgb(248,113,113)"/>
<rect x="632" y="1230" width="16" height="14" fill="rgb(220,38,38)"/>
<text x="654" y="1241">churn</text>
</g>
</svg>