<svg xmlns="http://www.w3.org/2000/svg" viewBox="0 0 1280.85 1314" width="1280.85" height="1314" font-family="Segoe UI, system-ui, sans-serif">
<rect width="1280.85" height="1314" fill="#ffffff"/>
<defs>
<marker id="arr94a3b8" viewBox="0 0 10 10" refX="9" refY="5" markerWidth="7" markerHeight="7" orient="auto-start-reverse"><path d="M 0 1 L 9 5 L 0 9 z" fill="#94a3b8"/></marker>
<marker id="arrf59e0b" viewBox="0 0 10 10" refX="9" refY="5" markerWidth="7" markerHeight="7" orient="auto-start-reverse"><path d="M 0 1 L 9 5 L 0 9 z" fill="#f59e0b"/></marker>
</defs>
<text x="640.425" y="28" text-anchor="middle" font-size="17" font-weight="700" fill="#1e293b">Architecture impact — shopstream (main → 563a93b607855669417a94029cf08ffdffefc7b7)</text>
<g transform="translate(24,52)">
<path d="M 529.090909090909 68 L 529.090909090909 94 Q 529.090909090909 102 521.090909090909 102 L 138 102 Q 130 102 130 110 L 130 620" fill="none" stroke="#94a3b8" stroke-width="2.4" marker-end="url(#arr94a3b8)" opacity="1"/>
<path d="M 563.9999999999999 68 L 563.9999999999999 620" fill="none" stroke="#94a3b8" stroke-width="2.4" marker-end="url(#arr94a3b8)" opacity="1"/>
<path d="M 581.4545454545453 68 L 581.4545454545453 104 Q 581.4545454545453 112 589.4545454545453 112 L 792.8499999999999 112 Q 800.8499999999999 112 800.8499999999999 120 L 800.8499999999999 852 Q 800.8499999999999 860 808.8499999999999 860 L 1037.85 860 Q 1045.85 860 1045.85 868 L 1045.85 914" fill="none" stroke="#94a3b8" stroke-width="3.3" marker-end="url(#arr94a3b8)" opacity="1"/>
<path d="M 590.181818181818 68 L 590.181818181818 94 Q 590.181818181818 102 598.181818181818 102 L 932.6999999999999 102 Q 940.6999999999999 102 940.6999999999999 110 L 940.6999999999999 156" fill="none" stroke="#94a3b8" stroke-width="2.4" marker-end="url(#arr94a3b8)" opacity="1"/>
<path d="M 572.7272727272726 68 L 572.7272727272726 114 Q 572.7272727272726 122 580.7272727272726 122 L 583.3499999999999 122 Q 591.3499999999999 122 591.3499999999999 130 L 591.3499999999999 464 Q 591.3499999999999 472 599.3499999999999 472 L 655.6999999999999 472 Q 663.6999999999999 472 663.6999999999999 480 L 663.6999999999999 506" fill="none" stroke="#94a3b8" stroke-width="3.3" marker-end="url(#arr94a3b8)" opacity="1"/>
<path d="M 546.5454545454544 68 L 546.5454545454544 114 Q 546.5454545454544 122 538.5454545454544 122 L 285.9999999999999 122 Q 277.9999999999999 122 277.9999999999999 130 L 277.9999999999999 270" fill="none" stroke="#94a3b8" stroke-width="3.3" marker-end="url(#arr94a3b8)" opacity="1"/>
<path d="M 555.2727272727271 68 L 555.2727272727271 124 Q 555.2727272727271 132 547.2727272727271 132 L 430.9999999999999 132 Q 422.9999999999999 132 422.9999999999999 140 L 422.9999999999999 620" fill="none" stroke="#94a3b8" stroke-width="2.4" marker-end="url(#arr94a3b8)" opacity="1"/>
<path d="M 598.9090909090908 68 L 598.9090909090908 84 Q 598.9090909090908 92 606.9090909090908 92 L 1016.8499999999999 92 Q 1024.85 92 1024.85 100 L 1024.85 506" fill="none" stroke="#94a3b8" stroke-width="2.4" marker-end="url(#arr94a3b8)" opacity="1"/>
<path d="M 520.3636363636363 68 L 520.3636363636363 84 Q 520.3636363636363 92 512.3636363636363 92 L 32 92 Q 24 92 24 100 L 24 1104 Q 24 1112 32 1112 L 1110.85 1112 Q 1118.85 1112 1118.85 1120 L 1118.85 1136" fill="none" stroke="#94a3b8" stroke-width="1.5" marker-end="url(#arr94a3b8)" opacity="1"/>
<path d="M 537.8181818181816 68 L 537.8181818181816 104 Q 537.8181818181816 112 529.8181818181816 112 L 209.9999999999999 112 Q 201.9999999999999 112 201.9999999999999 120 L 201.9999999999999 720 Q 201.9999999999999 728 209.9999999999999 728 L 450.9999999999999 728 Q 458.9999999999999 728 458.9999999999999 736 L 458.9999999999999 772" fill="none" stroke="#94a3b8" stroke-width="3.3" marker-end="url(#arr94a3b8)" opacity="1"/>
<path d="M 114 664 L 114 680 Q 114 688 106 688 L 43 688 Q 35 688 35 696 L 35 1094 Q 35 1102 43 1102 L 1116.85 1102 Q 1124.85 1102 1124.85 1110 L 1124.85 1136" fill="none" stroke="#94a3b8" stroke-width="2.4" marker-end="url(#arr94a3b8)" opacity="1"/>
<path d="M 146 664 L 146 740 Q 146 748 154 748 L 438.9999999999999 748 Q 446.9999999999999 748 446.9999999999999 756 L 446.9999999999999 772" fill="none" stroke="#94a3b8" stroke-width="1.5" marker-end="url(#arr94a3b8)" opacity="1"/>
<path d="M 366.9999999999999 428 L 366.9999999999999 474 Q 366.9999999999999 482 374.9999999999999 482 L 636.5 482 Q 644.5 482 644.5 490 L 644.5 506" fill="none" stroke="#94a3b8" stroke-width="1.5" marker-end="url(#arr94a3b8)" opacity="1"/>
<path d="M 334.9999999999999 428 L 334.9999999999999 444 Q 334.9999999999999 452 326.9999999999999 452 L 65 452 Q 57 452 57 460 L 57 1074 Q 57 1082 65 1082 L 1128.85 1082 Q 1136.85 1082 1136.85 1090 L 1136.85 1136" fill="none" stroke="#94a3b8" stroke-width="2.4" marker-end="url(#arr94a3b8)" opacity="1"/>
<path d="M 608.7999999999998 664 L 600.8 680 Q 608.8 688 616.8 688 L 781.8499999999999 688 Q 789.8499999999999 688 789.8499999999999 696 L 789.8499999999999 862 Q 789.8499999999999 870 797.8499999999999 870 L 1025.85 870 Q 1033.85 870 1033.85 878 L 1033.85 914" fill="none" stroke="#94a3b8" stroke-width="1.5" marker-end="url(#arr94a3b8)" opacity="1"/>
<path d="M 589.5999999999999 664 L 589.5999999999999 700 Q 589.5999999999999 708 597.5999999999999 708 L 642.8999999999999 708 Q 650.8999999999999 708 650.8999999999999 716 L 650.8999999999999 772" fill="none" stroke="#94a3b8" stroke-width="1.5" marker-end="url(#arr94a3b8)" opacity="1"/>
<path d="M 570.3999999999999 664 L 570.3999999999999 1044 Q 570.3999999999999 1052 578.3999999999999 1052 L 1146.85 1052 Q 1154.85 1052 1154.85 1060 L 1154.85 1136" fill="none" stroke="#94a3b8" stroke-width="2.4" marker-end="url(#arr94a3b8)" opacity="1"/>
<path d="M 551.1999999999999 664 L 551.1999999999999 700 Q 551.1999999999999 708 543.1999999999999 708 L 526.9999999999999 708 Q 518.9999999999999 708 518.9999999999999 716 L 518.9999999999999 772" fill="none" stroke="#94a3b8" stroke-width="1.5" marker-end="url(#arr94a3b8)" opacity="1"/>
<path d="M 1045.85 958 L 1045.85 1004 Q 1045.85 1012 1053.85 1012 L 1170.85 1012 Q 1178.85 1012 1178.85 1020 L 1178.85 1136" fill="none" stroke="#94a3b8" stroke-width="4.2" marker-end="url(#arr94a3b8)" opacity="1"/>
<path d="M 951.8499999999999 200 L 951.8499999999999 842 Q 951.8499999999999 850 959.8499999999999 850 L 1049.85 850 Q 1057.85 850 1057.85 858 L 1057.85 914" fill="none" stroke="#94a3b8" stroke-width="1.5" marker-end="url(#arr94a3b8)" opacity="1"/>
<path d="M 974.15 200 L 982.1499999999999 216 Q 974.1499999999999 224 982.1499999999999 224 L 1194.85 224 Q 1202.85 224 1202.85 232 L 1202.85 1136" fill="none" stroke="#94a3b8" stroke-width="1.5" marker-end="url(#arr94a3b8)" opacity="1"/>
<path d="M 929.55 200 L 929.55 226 Q 929.55 234 921.55 234 L 884.8499999999999 234 Q 876.8499999999999 234 876.8499999999999 242 L 876.8499999999999 270" fill="none" stroke="#f59e0b" stroke-width="1.5" marker-end="url(#arrf59e0b)" opacity="1"/>
<g><rect x="860.8499999999999" y="223" width="32" height="20" rx="10" fill="#fff" stroke="#f59e0b" stroke-width="1.2"/><text x="876.8499999999999" y="238" text-anchor="middle" font-size="12" >🔄</text></g>
<path d="M 702.0999999999999 428 L 702.0999999999999 506" fill="none" stroke="#f59e0b" stroke-width="1.5" marker-end="url(#arrf59e0b)" opacity="1"/>
<g><rect x="686.0999999999999" y="495" width="32" height="20" rx="10" fill="#fff" stroke="#f59e0b" stroke-width="1.2"/><text x="702.0999999999999" y="510" text-anchor="middle" font-size="12" >🔄</text></g>
<path d="M 739.4749999999999 428 L 739.4749999999999 444 Q 739.4749999999999 452 747.4749999999999 452 L 1161.85 452 Q 1169.85 452 1169.85 460 L 1169.85 994 Q 1169.85 1002 1177.85 1002 L 1176.85 1002 Q 1184.85 1002 1184.85 1010 L 1184.85 1136" fill="none" stroke="#94a3b8" stroke-width="1.5" marker-end="url(#arr94a3b8)" opacity="1"/>
<path d="M 664.7249999999999 428 L 664.7249999999999 454 Q 664.7249999999999 462 656.7249999999999 462 L 514.9999999999999 462 Q 506.9999999999999 462 506.9999999999999 470 L 506.9999999999999 772" fill="none" stroke="#94a3b8" stroke-width="1.5" marker-end="url(#arr94a3b8)" opacity="1"/>
<path d="M 663.6999999999999 550 L 663.6999999999999 576 Q 663.6999999999999 584 655.6999999999999 584 L 603.9999999999999 584 Q 595.9999999999999 584 595.9999999999999 592 L 595.9999999999999 620" fill="none" stroke="#94a3b8" stroke-width="1.5" marker-end="url(#arr94a3b8)" opacity="1"/>
<path d="M 682.9 550 L 682.8999999999999 772" fill="none" stroke="#94a3b8" stroke-width="1.5" marker-end="url(#arr94a3b8)" opacity="1"/>
<path d="M 702.0999999999999 550 L 702.0999999999999 566 Q 702.0999999999999 574 710.0999999999999 574 L 759.8499999999999 574 Q 767.8499999999999 574 767.8499999999999 582 L 767.8499999999999 1014 Q 767.8499999999999 1022 775.8499999999999 1022 L 1164.85 1022 Q 1172.85 1022 1172.85 1030 L 1172.85 1136" fill="none" stroke="#94a3b8" stroke-width="6.9" marker-end="url(#arr94a3b8)" opacity="1"/>
<path d="M 644.5 550 L 644.5 566 Q 644.5 574 636.5 574 L 502.9999999999999 574 Q 494.9999999999999 574 494.9999999999999 582 L 494.9999999999999 772" fill="none" stroke="#94a3b8" stroke-width="1.5" marker-end="url(#arr94a3b8)" opacity="1"/>
<path d="M 303.4999999999999 314 L 303.4999999999999 330 Q 303.4999999999999 338 311.4999999999999 338 L 342.9999999999999 338 Q 350.9999999999999 338 350.9999999999999 346 L 350.9999999999999 384" fill="none" stroke="#94a3b8" stroke-width="1.5" marker-end="url(#arr94a3b8)" opacity="1"/>
<path d="M 252.4999999999999 314 L 252.4999999999999 330 Q 252.4999999999999 338 244.4999999999999 338 L 54 338 Q 46 338 46 346 L 46 1084 Q 46 1092 54 1092 L 1122.85 1092 Q 1130.85 1092 1130.85 1100 L 1130.85 1136" fill="none" stroke="#94a3b8" stroke-width="2.4" marker-end="url(#arr94a3b8)" opacity="1"/>
<path d="M 277.9999999999999 314 L 277.9999999999999 710 Q 277.9999999999999 718 285.9999999999999 718 L 462.9999999999999 718 Q 470.9999999999999 718 470.9999999999999 726 L 470.9999999999999 772" fill="none" stroke="#94a3b8" stroke-width="1.5" marker-end="url(#arr94a3b8)" opacity="1"/>
<path d="M 690.8999999999999 816 L 690.8999999999999 882 Q 690.8999999999999 890 698.8999999999999 890 L 1001.8499999999999 890 Q 1009.8499999999999 890 1009.8499999999999 898 L 1009.8499999999999 914" fill="none" stroke="#94a3b8" stroke-width="1.5" marker-end="url(#arr94a3b8)" opacity="1"/>
<path d="M 666.8999999999999 816 L 666.8999999999999 914" fill="none" stroke="#94a3b8" stroke-width="1.5" marker-end="url(#arr94a3b8)" opacity="1"/>
<path d="M 642.8999999999999 816 L 642.8999999999999 832 Q 642.8999999999999 840 634.8999999999999 840 L 589.3999999999999 840 Q 581.3999999999999 840 581.3999999999999 848 L 581.3999999999999 1034 Q 581.3999999999999 1042 589.3999999999999 1042 L 1152.85 1042 Q 1160.85 1042 1160.85 1050 L 1160.85 1136" fill="none" stroke="#94a3b8" stroke-width="1.5" marker-end="url(#arr94a3b8)" opacity="1"/>
<path d="M 666.8999999999999 958 L 666.8999999999999 1024 Q 666.8999999999999 1032 674.8999999999999 1032 L 1158.85 1032 Q 1166.85 1032 1166.85 1040 L 1166.85 1136" fill="none" stroke="#94a3b8" stroke-width="2.4" marker-end="url(#arr94a3b8)" opacity="1"/>
<path d="M 446.9999999999999 664 L 446.9999999999999 690 Q 446.9999999999999 698 454.9999999999999 698 L 770.8499999999999 698 Q 778.8499999999999 698 778.8499999999999 706 L 778.8499999999999 872 Q 778.8499999999999 880 786.8499999999999 880 L 1013.8499999999999 880 Q 1021.8499999999999 880 1021.8499999999999 888 L 1021.8499999999999 914" fill="none" stroke="#94a3b8" stroke-width="1.5" marker-end="url(#arr94a3b8)" opacity="1"/>
<path d="M 398.9999999999999 664 L 398.9999999999999 730 Q 398.9999999999999 738 406.9999999999999 738 L 401.9999999999999 738 Q 409.9999999999999 738 409.9999999999999 746 L 409.9999999999999 1064 Q 409.9999999999999 1072 417.9999999999999 1072 L 1134.85 1072 Q 1142.85 1072 1142.85 1080 L 1142.85 1136" fill="none" stroke="#94a3b8" stroke-width="2.4" marker-end="url(#arr94a3b8)" opacity="1"/>
<path d="M 422.9999999999999 664 L 422.9999999999999 700 Q 422.9999999999999 708 430.9999999999999 708 L 474.9999999999999 708 Q 482.9999999999999 708 482.9999999999999 716 L 482.9999999999999 772" fill="none" stroke="#94a3b8" stroke-width="1.5" marker-end="url(#arr94a3b8)" opacity="1"/>
<path d="M 1024.85 550 L 1024.85 832 Q 1024.85 840 1032.85 840 L 1061.85 840 Q 1069.85 840 1069.85 848 L 1069.85 914" fill="none" stroke="#94a3b8" stroke-width="2.4" marker-end="url(#arr94a3b8)" opacity="1"/>
<path d="M 859.8499999999999 314 L 859.8499999999999 330 Q 859.8499999999999 338 851.8499999999999 338 L 710.0999999999999 338 Q 702.0999999999999 338 702.0999999999999 346 L 702.0999999999999 384" fill="none" stroke="#f59e0b" stroke-width="1.5" marker-end="url(#arrf59e0b)" opacity="1"/>
<g><rect x="686.0999999999999" y="327" width="32" height="20" rx="10" fill="#fff" stroke="#f59e0b" stroke-width="1.2"/><text x="702.0999999999999" y="342" text-anchor="middle" font-size="12" >🔄</text></g>
<path d="M 893.8499999999999 314 L 893.8499999999999 330 Q 893.8499999999999 338 901.8499999999999 338 L 1183.85 338 Q 1191.85 338 1191.85 346 L 1191.85 974 Q 1191.85 982 1199.85 982 L 1188.85 982 Q 1196.85 982 1196.85 990 L 1196.85 1136" fill="none" stroke="#94a3b8" stroke-width="1.5" marker-end="url(#arr94a3b8)" opacity="1"/>
<path d="M 1081.85 816 L 1081.85 914" fill="none" stroke="#94a3b8" stroke-width="1.5" marker-end="url(#arr94a3b8)" opacity="1"/>
<path d="M 1113.85 816 L 1113.85 832 Q 1113.85 840 1121.85 840 L 1172.85 840 Q 1180.85 840 1180.85 848 L 1180.85 984 Q 1180.85 992 1188.85 992 L 1182.85 992 Q 1190.85 992 1190.85 1000 L 1190.85 1136" fill="none" stroke="#94a3b8" stroke-width="1.5" marker-end="url(#arr94a3b8)" opacity="1"/>
<path d="M 482.9999999999999 816 L 482.9999999999999 1054 Q 482.9999999999999 1062 490.9999999999999 1062 L 1140.85 1062 Q 1148.85 1062 1148.85 1070 L 1148.85 1136" fill="none" stroke="#94a3b8" stroke-width="3.3" marker-end="url(#arr94a3b8)" opacity="1"/>
<path d="M 682.9 506 L 682.9 460 Q 682.9 452 674.9 452 L 610.3499999999999 452 Q 602.3499999999999 452 602.3499999999999 444 L 602.3499999999999 232 Q 602.3499999999999 224 610.3499999999999 224 L 899.2499999999999 224 Q 907.2499999999999 224 907.2499999999999 216 L 907.2499999999999 200" fill="none" stroke="#f59e0b" stroke-width="2.4" marker-end="url(#arrf59e0b)" opacity="1"/>
<g><rect x="586.3499999999999" y="213" width="32" height="20" rx="10" fill="#fff" stroke="#f59e0b" stroke-width="1.2"/><text x="602.3499999999999" y="228" text-anchor="middle" font-size="12" >🔄</text></g>
<g opacity="1"><rect x="511.6363636363635" y="24" width="96" height="44" rx="10" fill="#f8fafc" stroke="#94a3b8" stroke-width="1.4"/><text x="559.6363636363635" y="51" text-anchor="middle" font-size="14" font-weight="600" fill="#334155">api</text></g>
<g opacity="1"><rect x="82" y="620" width="96" height="44" rx="10" fill="#f8fafc" stroke="#94a3b8" stroke-width="1.4"/><text x="130" y="647" text-anchor="middle" font-size="14" font-weight="600" fill="#334155">auth</text></g>
<g opacity="1"><rect x="302.9999999999999" y="384" width="96" height="44" rx="10" fill="#f8fafc" stroke="#94a3b8" stroke-width="1.4"/><text x="350.9999999999999" y="411" text-anchor="middle" font-size="14" font-weight="600" fill="#334155">billing</text></g>
<g opacity="1"><rect x="531.9999999999999" y="620" width="96" height="44" rx="10" fill="#f8fafc" stroke="#94a3b8" stroke-width="1.4"/><text x="579.9999999999999" y="647" text-anchor="middle" font-size="14" font-weight="600" fill="#334155">cart</text></g>
<g opacity="1"><rect x="997.8499999999999" y="914" width="96" height="44" rx="10" fill="#f8fafc" stroke="#94a3b8" stroke-width="1.4"/><text x="1045.85" y="941" text-anchor="middle" font-size="14" font-weight="600" fill="#334155">catalog</text></g>
<g opacity="1"><rect x="884.9499999999999" y="156" width="111.5" height="44" rx="10" fill="rgb(254,222,131)" stroke="#94a3b8" stroke-width="1.4"/><text x="940.6999999999999" y="183" text-anchor="middle" font-size="14" font-weight="600" fill="#334155">inventory</text></g>
<g opacity="1"><rect x="627.3499999999999" y="384" width="149.5" height="44" rx="10" fill="#f8fafc" stroke="#94a3b8" stroke-width="1.4"/><text x="702.0999999999999" y="411" text-anchor="middle" font-size="14" font-weight="600" fill="#334155">notifications</text></g>
<g opacity="1"><rect x="625.3" y="506" width="96" height="44" rx="10" fill="rgb(220,38,38)" stroke="#94a3b8" stroke-width="1.4"/><text x="673.3" y="533" text-anchor="middle" font-size="14" font-weight="600" fill="#334155">orders</text></g>
<g opacity="1"><rect x="226.9999999999999" y="270" width="102" height="44" rx="10" fill="#f8fafc" stroke="#94a3b8" stroke-width="1.4"/><text x="277.9999999999999" y="297" text-anchor="middle" font-size="14" font-weight="600" fill="#334155">payments</text></g>
<g opacity="1"><rect x="618.8999999999999" y="772" width="96" height="44" rx="10" fill="#f8fafc" stroke="#94a3b8" stroke-width="1.4"/><text x="666.8999999999999" y="799" text-anchor="middle" font-size="14" font-weight="600" fill="#334155">pricing</text></g>
<g opacity="1"><rect x="606.3999999999999" y="914" width="121" height="44" rx="10" fill="#f8fafc" stroke="#94a3b8" stroke-width="1.4"/><text x="666.8999999999999" y="941" text-anchor="middle" font-size="14" font-weight="600" fill="#334155">promotions</text></g>
<g opacity="1"><rect x="374.9999999999999" y="620" width="96" height="44" rx="10" fill="#f8fafc" stroke="#94a3b8" stroke-width="1.4"/><text x="422.9999999999999" y="647" text-anchor="middle" font-size="14" font-weight="600" fill="#334155">reviews</text></g>
<g opacity="1"><rect x="976.8499999999999" y="506" width="96" height="44" rx="10" fill="#f8fafc" stroke="#94a3b8" stroke-width="1.4"/><text x="1024.85" y="533" text-anchor="middle" font-size="14" font-weight="600" fill="#334155">search</text></g>
<g opacity="1"><rect x="1112.85" y="1136" width="96" height="44" rx="10" fill="#f8fafc" stroke="#94a3b8" stroke-width="1.4"/><text x="1160.85" y="1163" text-anchor="middle" font-size="14" font-weight="600" fill="#334155">shared</text></g>
<g opacity="1"><rect x="825.8499999999999" y="270" width="102" height="44" rx="10" fill="#f8fafc" stroke="#94a3b8" stroke-width="1.4"/><text x="876.8499999999999" y="297" text-anchor="middle" font-size="14" font-weight="600" fill="#334155">shipping</text></g>
<g opacity="1"><rect x="1049.85" y="772" width="96" height="44" rx="10" fill="#f8fafc" stroke="#94a3b8" stroke-width="1.4"/><text x="1097.85" y="799" text-anchor="middle" font-size="14" font-weight="600" fill="#334155">ui</text></g>
<g opacity="1"><rect x="434.9999999999999" y="772" width="96" height="44" rx="10" fill="#f8fafc" stroke="#94a3b8" stroke-width="1.4"/><text x="482.9999999999999" y="799" text-anchor="middle" font-size="14" font-weight="600" fill="#334155">users</text></g>
</g>
<g font-size="12" fill="#64748b">
<rect x="24" y="1286" width="14" height="14" rx="4" fill="#16a34a"/>
<text x="44" y="1297">added</text>
<rect x="107" y="1286" width="14" height="14" rx="4" fill="#9ca3af"/>
<text x="127" y="1297">removed</text>
<rect x="204" y="1286" width="14" height="14" rx="4" fill="#dc2626"/>
<text x="224" y="1297">forbidden</text>
<rect x="315" y="1286" width="14" height="14" rx="4" fill="#f59e0b"/>
<text x="335" y="1297">cycle</text>
<rect x="398" y="1286" width="14" height="14" rx="4" fill="#7c3aed"/>
<text x="418" y="1297">strengthened</text>
<text x="530" y="1297">heat:</text>
<rect x="568" y="1286" width="16" height="14" fill="#f1f5f9"/>
<rect x="584" y="1286" width="16" height="14" fill="rgb(254,240,138)"/>
<rect x="600" y="1286" width="16" height="14" fill="rgb(253,186,116)"/>
<rect x="616" y="1286" width="16" height="14" fill="rgb(248,113,113)"/>
<rect x="632" y="1286" width="16" height="14" fill="rgb(220,38,38)"/>
<text x="654" y="1297">churn</text>
</g>
</svg>