<svg xmlns="http://www.w3.org/2000/svg" viewBox="0 0 1293.3970588235295 1356" width="1293.3970588235295" height="1356" font-family="Segoe UI, system-ui, sans-serif">
<rect width="1293.3970588235295" height="1356" fill="#ffffff"/>
<defs>
<marker id="arr94a3b8" viewBox="0 0 10 10" refX="9" refY="5" markerWidth="7" markerHeight="7" orient="auto-start-reverse"><path d="M 0 1 L 9 5 L 0 9 z" fill="#94a3b8"/></marker>
<marker id="arr16a34a" viewBox="0 0 10 10" refX="9" refY="5" markerWidth="7" markerHeight="7" orient="auto-start-reverse"><path d="M 0 1 L 9 5 L 0 9 z" fill="#16a34a"/></marker>
</defs>
<text x="646.6985294117648" y="28" text-anchor="middle" font-size="17" font-weight="700" fill="#1e293b">Architecture impact — shopstream (main → e7c06ee3526edffafdf9115a700858e1dc52e5da)</text>
<g transform="translate(24,52)">
<path d="M 600.6833333333334 68 L 600.6833333333334 124 Q 600.6833333333334 132 608.6833333333334 132 L 764.0833333333334 132 Q 772.0833333333334 132 772.0833333333334 140 L 772.0833333333334 612" fill="none" stroke="#94a3b8" stroke-width="2.4" marker-end="url(#arr94a3b8)" opacity="1"/>
<path d="M 592.6833333333334 68 L 592.6833333333334 612" fill="none" stroke="#94a3b8" stroke-width="2.4" marker-end="url(#arr94a3b8)" opacity="1"/>
<path d="M 560.6833333333334 68 L 560.6833333333334 94 Q 560.6833333333334 102 552.6833333333334 102 L 87 102 Q 79 102 79 110 L 79 914 Q 79 922 87 922 L 470.75 922 Q 478.75 922 486.75 930 L 478.75000000000006 946" fill="none" stroke="#94a3b8" stroke-width="3.3" marker-end="url(#arr94a3b8)" opacity="1"/>
<path d="M 568.6833333333334 68 L 568.6833333333334 104 Q 568.6833333333334 112 560.6833333333334 112 L 167.75 112 Q 159.75 112 159.75 120 L 159.75 156" fill="none" stroke="#94a3b8" stroke-width="2.4" marker-end="url(#arr94a3b8)" opacity="1"/>
<path d="M 608.6833333333334 68 L 608.6833333333334 114 Q 608.6833333333334 122 616.6833333333334 122 L 837.0833333333334 122 Q 845.0833333333334 122 845.0833333333334 130 L 845.0833333333334 498" fill="none" stroke="#94a3b8" stroke-width="3.3" marker-end="url(#arr94a3b8)" opacity="1"/>
<path d="M 624.6833333333334 68 L 624.6833333333334 94 Q 624.6833333333334 102 632.6833333333334 102 L 1065.0833333333335 102 Q 1073.0833333333335 102 1073.0833333333335 110 L 1073.0833333333335 270" fill="none" stroke="#94a3b8" stroke-width="3.3" marker-end="url(#arr94a3b8)" opacity="1"/>
<path d="M 616.6833333333334 68 L 616.6833333333334 104 Q 616.6833333333334 112 624.6833333333334 112 L 909.0833333333334 112 Q 917.0833333333334 112 917.0833333333334 120 L 917.0833333333334 612" fill="none" stroke="#94a3b8" stroke-width="2.4" marker-end="url(#arr94a3b8)" opacity="1"/>
<path d="M 576.6833333333334 68 L 576.6833333333334 114 Q 576.6833333333334 122 568.6833333333334 122 L 318.75 122 Q 310.75 122 310.75 130 L 310.75 498" fill="none" stroke="#94a3b8" stroke-width="2.4" marker-end="url(#arr94a3b8)" opacity="1"/>
<path d="M 552.6833333333334 68 L 552.6833333333334 84 Q 552.6833333333334 92 544.6833333333334 92 L 32 92 Q 24 92 24 100 L 24 1146 Q 24 1154 32 1154 L 1123.044117647059 1154 Q 1131.044117647059 1154 1131.044117647059 1162 L 1131.044117647059 1178" fill="none" stroke="#94a3b8" stroke-width="1.5" marker-end="url(#arr94a3b8)" opacity="1"/>
<path d="M 632.6833333333334 68 L 632.6833333333334 84 Q 632.6833333333334 92 640.6833333333334 92 L 1140.0833333333335 92 Q 1148.0833333333335 92 1140.0833333333335 100 L 1148.0833333333333 794" fill="none" stroke="#94a3b8" stroke-width="3.3" marker-end="url(#arr94a3b8)" opacity="1"/>
<path d="M 756.0833333333334 656 L 756.0833333333334 1066 Q 756.0833333333334 1074 764.0833333333334 1074 L 1168.2205882352941 1074 Q 1176.2205882352941 1074 1176.2205882352941 1082 L 1176.2205882352941 1178" fill="none" stroke="#94a3b8" stroke-width="2.4" marker-end="url(#arr94a3b8)" opacity="1"/>
<path d="M 788.0833333333334 656 L 788.0833333333334 712 Q 788.0833333333334 720 796.0833333333334 720 L 1097.4166666666667 720 Q 1105.4166666666667 720 1105.4166666666667 728 L 1105.4166666666667 794" fill="none" stroke="#94a3b8" stroke-width="1.5" marker-end="url(#arr94a3b8)" opacity="1"/>
<path d="M 1057.0833333333335 428 L 1057.0833333333335 444 Q 1057.0833333333335 452 1049.0833333333335 452 L 877.0833333333334 452 Q 869.0833333333334 452 869.0833333333334 460 L 869.0833333333334 498" fill="none" stroke="#94a3b8" stroke-width="1.5" marker-end="url(#arr94a3b8)" opacity="1"/>
<path d="M 1089.0833333333335 428 L 1089.0833333333335 444 Q 1089.0833333333335 452 1097.0833333333335 452 L 1196.75 452 Q 1204.75 452 1204.75 460 L 1204.75 1006 Q 1204.75 1014 1212.75 1014 L 1202.1029411764707 1014 Q 1210.1029411764707 1014 1210.1029411764707 1022 L 1210.1029411764707 1178" fill="none" stroke="#94a3b8" stroke-width="2.4" marker-end="url(#arr94a3b8)" opacity="1"/>
<path d="M 579.8833333333334 656 L 579.8833333333334 672 Q 579.8833333333334 680 571.8833333333334 680 L 405.75 680 Q 397.75 680 397.75 688 L 397.75 874 Q 397.75 882 405.75 882 L 513.4166666666667 882 Q 521.4166666666667 882 521.4166666666667 890 L 521.4166666666667 946" fill="none" stroke="#94a3b8" stroke-width="1.5" marker-end="url(#arr94a3b8)" opacity="1"/>
<path d="M 618.2833333333334 656 L 618.2833333333334 752 Q 618.2833333333334 760 626.2833333333334 760 L 648.0833333333334 760 Q 656.0833333333334 760 656.0833333333334 768 L 656.0833333333334 794" fill="none" stroke="#94a3b8" stroke-width="1.5" marker-end="url(#arr94a3b8)" opacity="1"/>
<path d="M 599.0833333333334 656 L 599.0833333333334 1076 Q 599.0833333333334 1084 607.0833333333334 1084 L 1162.5735294117649 1084 Q 1170.5735294117649 1084 1170.5735294117649 1092 L 1170.5735294117649 1178" fill="none" stroke="#94a3b8" stroke-width="2.4" marker-end="url(#arr94a3b8)" opacity="1"/>
<path d="M 637.4833333333333 656 L 637.4833333333333 732 Q 637.4833333333333 740 645.4833333333333 740 L 1076.0833333333335 740 Q 1084.0833333333335 740 1076.0833333333335 748 L 1084.0833333333333 794" fill="none" stroke="#94a3b8" stroke-width="1.5" marker-end="url(#arr94a3b8)" opacity="1"/>
<path d="M 516.0833333333334 990 L 516.0833333333334 1096 Q 516.0833333333334 1104 524.0833333333334 1104 L 1151.279411764706 1104 Q 1159.279411764706 1104 1159.279411764706 1112 L 1159.279411764706 1178" fill="none" stroke="#94a3b8" stroke-width="4.2" marker-end="url(#arr94a3b8)" opacity="1"/>
<path d="M 159.75 200 L 159.75 904 Q 159.75 912 167.75 912 L 481.41666666666674 912 Q 489.41666666666674 912 481.41666666666674 920 L 489.4166666666667 946" fill="none" stroke="#94a3b8" stroke-width="1.5" marker-end="url(#arr94a3b8)" opacity="1"/>
<path d="M 131.875 200 L 131.875 216 Q 131.875 224 123.875 224 L 43 224 Q 35 224 35 232 L 35 1136 Q 35 1144 43 1144 L 1128.6911764705883 1144 Q 1136.6911764705883 1144 1136.6911764705883 1152 L 1136.6911764705883 1178" fill="none" stroke="#94a3b8" stroke-width="1.5" marker-end="url(#arr94a3b8)" opacity="1"/>
<path d="M 187.625 200 L 187.625 216 Q 187.625 224 195.625 224 L 227.75 224 Q 235.75 224 235.75 232 L 235.75 270" fill="none" stroke="#94a3b8" stroke-width="1.5" marker-end="url(#arr94a3b8)" opacity="1"/>
<path d="M 531.3083333333334 428 L 531.3083333333334 444 Q 531.3083333333334 452 539.3083333333334 452 L 813.0833333333334 452 Q 821.0833333333334 452 821.0833333333334 460 L 821.0833333333334 498" fill="none" stroke="#94a3b8" stroke-width="1.5" marker-end="url(#arr94a3b8)" opacity="1"/>
<path d="M 456.5583333333334 428 L 456.5583333333334 444 Q 456.5583333333334 452 448.5583333333334 452 L 65 452 Q 57 452 57 460 L 57 1116 Q 57 1124 65 1124 L 1139.985294117647 1124 Q 1147.985294117647 1124 1147.985294117647 1132 L 1147.985294117647 1178" fill="none" stroke="#94a3b8" stroke-width="1.5" marker-end="url(#arr94a3b8)" opacity="1"/>
<path d="M 493.9333333333334 428 L 493.9333333333334 454 Q 493.9333333333334 462 501.9333333333334 462 L 691.0833333333334 462 Q 699.0833333333334 462 699.0833333333334 470 L 699.0833333333334 722 Q 699.0833333333334 730 707.0833333333334 730 L 1086.75 730 Q 1094.75 730 1094.75 738 L 1094.75 794" fill="none" stroke="#94a3b8" stroke-width="1.5" marker-end="url(#arr94a3b8)" opacity="1"/>
<path d="M 816.2833333333334 542 L 824.2833333333333 558 Q 816.2833333333333 566 808.2833333333333 566 L 632.6833333333334 566 Q 624.6833333333334 566 624.6833333333334 574 L 624.6833333333334 612" fill="none" stroke="#94a3b8" stroke-width="1.5" marker-end="url(#arr94a3b8)" opacity="1"/>
<path d="M 835.4833333333333 542 L 835.4833333333333 568 Q 835.4833333333333 576 827.4833333333333 576 L 696.0833333333334 576 Q 688.0833333333334 576 688.0833333333334 584 L 688.0833333333334 794" fill="none" stroke="#94a3b8" stroke-width="1.5" marker-end="url(#arr94a3b8)" opacity="1"/>
<path d="M 873.8833333333333 542 L 865.8833333333334 558 Q 873.8833333333334 566 881.8833333333334 566 L 1174.75 566 Q 1182.75 566 1182.75 574 L 1182.75 1026 Q 1182.75 1034 1190.75 1034 L 1190.808823529412 1034 Q 1198.808823529412 1034 1198.808823529412 1042 L 1198.808823529412 1178" fill="none" stroke="#94a3b8" stroke-width="6" marker-end="url(#arr94a3b8)" opacity="1"/>
<path d="M 854.6833333333334 542 L 854.6833333333334 568 Q 854.6833333333334 576 862.6833333333334 576 L 981.0833333333334 576 Q 989.0833333333334 576 989.0833333333334 584 L 989.0833333333334 692 Q 989.0833333333334 700 997.0833333333334 700 L 1118.75 700 Q 1126.75 700 1126.75 708 L 1126.75 794" fill="none" stroke="#94a3b8" stroke-width="1.5" marker-end="url(#arr94a3b8)" opacity="1"/>
<path d="M 1073.0833333333335 314 L 1073.0833333333335 384" fill="none" stroke="#94a3b8" stroke-width="1.5" marker-end="url(#arr94a3b8)" opacity="1"/>
<path d="M 1098.5833333333335 314 L 1098.5833333333335 330 Q 1098.5833333333335 338 1106.5833333333335 338 L 1207.75 338 Q 1215.75 338 1215.75 346 L 1215.75 1178" fill="none" stroke="#94a3b8" stroke-width="2.4" marker-end="url(#arr94a3b8)" opacity="1"/>
<path d="M 1047.5833333333335 314 L 1047.5833333333335 330 Q 1047.5833333333335 338 1039.5833333333335 338 L 1008.0833333333334 338 Q 1000.0833333333334 338 1000.0833333333334 346 L 1000.0833333333334 682 Q 1000.0833333333334 690 1008.0833333333334 690 L 1129.4166666666667 690 Q 1137.4166666666667 690 1137.4166666666667 698 L 1137.4166666666667 794" fill="none" stroke="#94a3b8" stroke-width="1.5" marker-end="url(#arr94a3b8)" opacity="1"/>
<path d="M 648.0833333333334 838 L 648.0833333333334 864 Q 648.0833333333334 872 640.0833333333334 872 L 561.4166666666667 872 Q 553.4166666666667 872 553.4166666666667 880 L 553.4166666666667 946" fill="none" stroke="#94a3b8" stroke-width="1.5" marker-end="url(#arr94a3b8)" opacity="1"/>
<path d="M 696.0833333333334 838 L 696.0833333333334 854 Q 696.0833333333334 862 704.0833333333334 862 L 1018.25 862 Q 1026.25 862 1026.25 870 L 1026.25 946" fill="none" stroke="#94a3b8" stroke-width="1.5" marker-end="url(#arr94a3b8)" opacity="1"/>
<path d="M 672.0833333333334 838 L 672.0833333333334 864 Q 672.0833333333334 872 680.0833333333334 872 L 932.75 872 Q 940.75 872 940.75 880 L 940.75 1056 Q 940.75 1064 948.75 1064 L 1173.8676470588236 1064 Q 1181.8676470588236 1064 1181.8676470588236 1072 L 1181.8676470588236 1178" fill="none" stroke="#94a3b8" stroke-width="1.5" marker-end="url(#arr94a3b8)" opacity="1"/>
<path d="M 1026.25 990 L 1026.25 1046 Q 1026.25 1054 1034.25 1054 L 1179.5147058823532 1054 Q 1187.5147058823532 1054 1187.5147058823532 1062 L 1187.5147058823532 1178" fill="none" stroke="#94a3b8" stroke-width="2.4" marker-end="url(#arr94a3b8)" opacity="1"/>
<path d="M 893.0833333333334 656 L 893.0833333333334 742 Q 893.0833333333334 750 885.0833333333334 750 L 550.75 750 Q 542.75 750 542.75 758 L 542.75 946" fill="none" stroke="#94a3b8" stroke-width="1.5" marker-end="url(#arr94a3b8)" opacity="1"/>
<path d="M 941.0833333333334 656 L 941.0833333333334 672 Q 941.0833333333334 680 949.0833333333334 680 L 1185.75 680 Q 1193.75 680 1193.75 688 L 1193.75 1016 Q 1193.75 1024 1201.75 1024 L 1196.4558823529412 1024 Q 1204.4558823529412 1024 1204.4558823529412 1032 L 1204.4558823529412 1178" fill="none" stroke="#94a3b8" stroke-width="2.4" marker-end="url(#arr94a3b8)" opacity="1"/>
<path d="M 917.0833333333334 656 L 917.0833333333334 702 Q 917.0833333333334 710 925.0833333333334 710 L 1108.0833333333335 710 Q 1116.0833333333335 710 1108.0833333333335 718 L 1116.0833333333333 794" fill="none" stroke="#94a3b8" stroke-width="1.5" marker-end="url(#arr94a3b8)" opacity="1"/>
<path d="M 310.75 542 L 310.75 894 Q 310.75 902 318.75 902 L 492.08333333333337 902 Q 500.08333333333337 902 500.08333333333337 910 L 500.08333333333337 946" fill="none" stroke="#94a3b8" stroke-width="2.4" marker-end="url(#arr94a3b8)" opacity="1"/>
<path d="M 252.75 314 L 252.75 330 Q 252.75 338 260.75 338 L 485.9333333333334 338 Q 493.9333333333334 338 493.9333333333334 346 L 493.9333333333334 384" fill="none" stroke="#94a3b8" stroke-width="1.5" marker-end="url(#arr94a3b8)" opacity="1"/>
<path d="M 218.75 314 L 218.75 330 Q 218.75 338 210.75 338 L 54 338 Q 46 338 46 346 L 46 1126 Q 46 1134 54 1134 L 1134.3382352941178 1134 Q 1142.3382352941178 1134 1142.3382352941178 1142 L 1142.3382352941178 1178" fill="none" stroke="#94a3b8" stroke-width="1.5" marker-end="url(#arr94a3b8)" opacity="1"/>
<path d="M 454.75 838 L 454.75 864 Q 454.75 872 462.75 872 L 524.0833333333334 872 Q 532.0833333333334 872 532.0833333333334 880 L 532.0833333333334 946" fill="none" stroke="#94a3b8" stroke-width="1.5" marker-end="url(#arr94a3b8)" opacity="1"/>
<path d="M 486.75 838 L 486.75 854 Q 486.75 862 494.75 862 L 580.0833333333334 862 Q 588.0833333333334 862 588.0833333333334 870 L 588.0833333333334 1086 Q 588.0833333333334 1094 596.0833333333334 1094 L 1156.9264705882354 1094 Q 1164.9264705882354 1094 1164.9264705882354 1102 L 1164.9264705882354 1178" fill="none" stroke="#94a3b8" stroke-width="1.5" marker-end="url(#arr94a3b8)" opacity="1"/>
<path d="M 1110.75 838 L 1110.75 1036 Q 1110.75 1044 1118.75 1044 L 1185.1617647058824 1044 Q 1193.1617647058824 1044 1193.1617647058824 1052 L 1193.1617647058824 1178" fill="none" stroke="#94a3b8" stroke-width="3.3" marker-end="url(#arr94a3b8)" opacity="1"/>
<path d="M 584.6833333333334 68 L 584.6833333333334 124 Q 584.6833333333334 132 576.6833333333334 132 L 394.75 132 Q 386.75 132 386.75 140 L 386.75 612" fill="none" stroke="#16a34a" stroke-width="2.4" marker-end="url(#arr16a34a)" opacity="1"/>
<path d="M 386.75 656 L 386.75 884 Q 386.75 892 394.75 892 L 502.75 892 Q 510.75 892 518.75 900 L 510.75000000000006 946" fill="none" stroke="#16a34a" stroke-width="2.4" marker-end="url(#arr16a34a)" opacity="1"/>
<path d="M 361.25 656 L 361.25 672 Q 361.25 680 353.25 680 L 76 680 Q 68 680 68 688 L 68 1106 Q 68 1114 76 1114 L 1145.6323529411766 1114 Q 1153.6323529411766 1114 1153.6323529411766 1122 L 1153.6323529411766 1178" fill="none" stroke="#16a34a" stroke-width="2.4" marker-end="url(#arr16a34a)" opacity="1"/>
<path d="M 412.25 656 L 412.25 762 Q 412.25 770 420.25 770 L 1065.4166666666667 770 Q 1073.4166666666667 770 1073.4166666666667 778 L 1073.4166666666667 794" fill="none" stroke="#16a34a" stroke-width="1.5" marker-end="url(#arr16a34a)" opacity="1"/>
<g opacity="1"><rect x="544.6833333333334" y="24" width="96" height="44" rx="10" fill="rgb(253,186,116)" stroke="#94a3b8" stroke-width="1.4"/><text x="592.6833333333334" y="51" text-anchor="middle" font-size="14" font-weight="600" fill="#334155">api</text></g>
<g opacity="1"><rect x="724.0833333333334" y="612" width="96" height="44" rx="10" fill="#f8fafc" stroke="#94a3b8" stroke-width="1.4"/><text x="772.0833333333334" y="639" text-anchor="middle" font-size="14" font-weight="600" fill="#334155">auth</text></g>
<g opacity="1"><rect x="1025.0833333333335" y="384" width="96" height="44" rx="10" fill="#f8fafc" stroke="#94a3b8" stroke-width="1.4"/><text x="1073.0833333333335" y="411" text-anchor="middle" font-size="14" font-weight="600" fill="#334155">billing</text></g>
<g opacity="1"><rect x="560.6833333333334" y="612" width="96" height="44" rx="10" fill="#f8fafc" stroke="#94a3b8" stroke-width="1.4"/><text x="608.6833333333334" y="639" text-anchor="middle" font-size="14" font-weight="600" fill="#334155">cart</text></g>
<g opacity="1"><rect x="468.08333333333337" y="946" width="96" height="44" rx="10" fill="rgb(250,242,175)" stroke="#94a3b8" stroke-width="1.4"/><text x="516.0833333333334" y="973" text-anchor="middle" font-size="14" font-weight="600" fill="#334155">catalog</text></g>
<g opacity="1"><rect x="104" y="156" width="111.5" height="44" rx="10" fill="#f8fafc" stroke="#94a3b8" stroke-width="1.4"/><text x="159.75" y="183" text-anchor="middle" font-size="14" font-weight="600" fill="#334155">inventory</text></g>
<g opacity="1"><rect x="419.1833333333334" y="384" width="149.5" height="44" rx="10" fill="#f8fafc" stroke="#94a3b8" stroke-width="1.4"/><text x="493.9333333333334" y="411" text-anchor="middle" font-size="14" font-weight="600" fill="#334155">notifications</text></g>
<g opacity="1"><rect x="797.0833333333334" y="498" width="96" height="44" rx="10" fill="#f8fafc" stroke="#94a3b8" stroke-width="1.4"/><text x="845.0833333333334" y="525" text-anchor="middle" font-size="14" font-weight="600" fill="#334155">orders</text></g>
<g opacity="1"><rect x="1022.0833333333334" y="270" width="102" height="44" rx="10" fill="#f8fafc" stroke="#94a3b8" stroke-width="1.4"/><text x="1073.0833333333335" y="297" text-anchor="middle" font-size="14" font-weight="600" fill="#334155">payments</text></g>
<g opacity="1"><rect x="624.0833333333334" y="794" width="96" height="44" rx="10" fill="#f8fafc" stroke="#94a3b8" stroke-width="1.4"/><text x="672.0833333333334" y="821" text-anchor="middle" font-size="14" font-weight="600" fill="#334155">pricing</text></g>
<g opacity="1"><rect x="965.75" y="946" width="121" height="44" rx="10" fill="#f8fafc" stroke="#94a3b8" stroke-width="1.4"/><text x="1026.25" y="973" text-anchor="middle" font-size="14" font-weight="600" fill="#334155">promotions</text></g>
<g opacity="1"><rect x="869.0833333333334" y="612" width="96" height="44" rx="10" fill="#f8fafc" stroke="#94a3b8" stroke-width="1.4"/><text x="917.0833333333334" y="639" text-anchor="middle" font-size="14" font-weight="600" fill="#334155">reviews</text></g>
<g opacity="1"><rect x="262.75" y="498" width="96" height="44" rx="10" fill="#f8fafc" stroke="#94a3b8" stroke-width="1.4"/><text x="310.75" y="525" text-anchor="middle" font-size="14" font-weight="600" fill="#334155">search</text></g>
<g opacity="1"><rect x="1125.3970588235295" y="1178" width="96" height="44" rx="10" fill="rgb(250,242,175)" stroke="#94a3b8" stroke-width="1.4"/><text x="1173.3970588235295" y="1205" text-anchor="middle" font-size="14" font-weight="600" fill="#334155">shared</text></g>
<g opacity="1"><rect x="184.75" y="270" width="102" height="44" rx="10" fill="#f8fafc" stroke="#94a3b8" stroke-width="1.4"/><text x="235.75" y="297" text-anchor="middle" font-size="14" font-weight="600" fill="#334155">shipping</text></g>
<g opacity="1"><rect x="422.75" y="794" width="96" height="44" rx="10" fill="#f8fafc" stroke="#94a3b8" stroke-width="1.4"/><text x="470.75" y="821" text-anchor="middle" font-size="14" font-weight="600" fill="#334155">ui</text></g>
<g opacity="1"><rect x="1062.75" y="794" width="96" height="44" rx="10" fill="rgb(250,242,175)" stroke="#94a3b8" stroke-width="1.4"/><text x="1110.75" y="821" text-anchor="middle" font-size="14" font-weight="600" fill="#334155">users</text></g>
<g opacity="1"><rect x="335.75" y="612" width="102" height="44" rx="10" fill="rgb(220,38,38)" stroke="#16a34a" stroke-width="2.2"/><text x="386.75" y="639" text-anchor="middle" font-size="14" font-weight="600" fill="#166534">wishlist</text><circle cx="435.75" cy="614" r="9" fill="#16a34a"/><text x="435.75" y="618" text-anchor="middle" font-size="12" fill="#fff" font-weight="700">+</text></g>
</g>
<g font-size="12" fill="#64748b">
<rect x="24" y="1328" width="14" height="14" rx="4" fill="#16a34a"/>
<text x="44" y="1339">added</text>
<rect x="107" y="1328" width="14" height="14" rx="4" fill="#9ca3af"/>
<text x="127" y="1339">removed</text>
<rect x="204" y="1328" width="14" height="14" rx="4" fill="#dc2626"/>
<text x="224" y="1339">forbidden</text>
<rect x="315" y="1328" width="14" height="14" rx="4" fill="#f59e0b"/>
<text x="335" y="1339">cycle</text>
<rect x="398" y="1328" width="14" height="14" rx="4" fill="#7c3aed"/>
<text x="418" y="1339">strengthened</text>
<text x="530" y="1339">heat:</text>
<rect x="568" y="1328" width="16" height="14" fill="#f1f5f9"/>
<rect x="584" y="1328" width="16" height="14" fill="rgb(254,240,138)"/>
<rect x="600" y="1328" width="16" height="14" fill="rgb(253,186,116)"/>
<rect x="616" y="1328" width="16" height="14" fill="rgb(248,113,113)"/>
<rect x="632" y="1328" width="16" height="14" fill="rgb(220,38,38)"/>
<text x="654" y="1339">churn</text>
</g>
</svg>